<svg xmlns="http://www.w3.org/2000/svg" xmlns:xlink="http://www.w3.org/1999/xlink" contentStyleType="text/css" height="1558px" preserveAspectRatio="none" style="width:724px;height:1558px;background:#FFFFFF;" version="1.1" viewBox="0 0 724 1558" width="724px" zoomAndPan="magnify"><defs/><g><!--cluster GymAggregate--><g id="cluster_GymAggregate"><rect fill="#FFFFFF" height="470" rx="5" ry="5" style="stroke:#64748B;stroke-width:1;" width="324" x="39.1627" y="983"/><text fill="#0F172A" font-family="Segoe UI" font-size="14" font-weight="bold" lengthAdjust="spacing" textLength="103.7217" x="149.3019" y="1000.1074">Gym Aggregate</text></g><!--cluster MembershipAggregate--><g id="cluster_MembershipAggregate"><rect fill="#FFFFFF" height="137" rx="5" ry="5" style="stroke:#64748B;stroke-width:1;" width="335.5" x="39.1627" y="660"/><text fill="#0F172A" font-family="Segoe UI" font-size="14" font-weight="bold" lengthAdjust="spacing" textLength="156.2832" x="128.7711" y="677.1074">Membership Aggregate</text></g><!--cluster TrainerProgressAggregate--><g id="cluster_TrainerProgressAggregate"><rect fill="#FFFFFF" height="470" rx="5" ry="5" style="stroke:#64748B;stroke-width:1;" width="329.5" x="39.1627" y="4"/><text fill="#0F172A" font-family="Segoe UI" font-size="14" font-weight="bold" lengthAdjust="spacing" textLength="181.0361" x="113.3947" y="21.1074">Trainer Progress Aggregate</text></g><!--cluster OrderAggregate--><g id="cluster_OrderAggregate"><rect fill="#FFFFFF" height="170" rx="5" ry="5" style="stroke:#64748B;stroke-width:1;" width="494" x="224.1627" y="805"/><text fill="#0F172A" font-family="Segoe UI" font-size="14" font-weight="bold" lengthAdjust="spacing" textLength="111.4121" x="415.4567" y="822.1074">Order Aggregate</text></g><!--cluster SubscriptionAggregate--><g id="cluster_SubscriptionAggregate"><rect fill="#FFFFFF" height="170" rx="5" ry="5" style="stroke:#64748B;stroke-width:1;" width="336" x="208.1627" y="482"/><text fill="#0F172A" font-family="Segoe UI" font-size="14" font-weight="bold" lengthAdjust="spacing" textLength="155.9756" x="298.1749" y="499.1074">Subscription Aggregate</text></g><!--entity Gym--><g id="elem_Gym"><rect fill="#FFFFFF" height="57.2422" rx="5" ry="5" style="stroke:#64748B;stroke-width:0.5;" width="132.6631" x="47.1627" y="1162.5"/><text fill="#0F172A" font-family="Segoe UI" font-size="14" lengthAdjust="spacing" textLength="28.4375" x="57.1627" y="1187.6074">Gym</text><text fill="#0F172A" font-family="Segoe UI" font-size="14" lengthAdjust="spacing" textLength="112.6631" x="57.1627" y="1206.2285">&#171;Aggregate Root&#187;</text></g><!--entity Location--><g id="elem_Location"><rect fill="#FFFFFF" height="57.2422" rx="5" ry="5" style="stroke:#64748B;stroke-width:0.5;" width="113.1602" x="242.1627" y="1387.5"/><text fill="#0F172A" font-family="Segoe UI" font-size="14" lengthAdjust="spacing" textLength="52.6436" x="252.1627" y="1412.6074">Location</text><text fill="#0F172A" font-family="Segoe UI" font-size="14" lengthAdjust="spacing" textLength="93.1602" x="252.1627" y="1431.2285">&#171;Value Object&#187;</text></g><!--entity Pricing--><g id="elem_Pricing"><rect fill="#FFFFFF" height="57.2422" rx="5" ry="5" style="stroke:#64748B;stroke-width:0.5;" width="113.1602" x="242.1627" y="1312.5"/><text fill="#0F172A" font-family="Segoe UI" font-size="14" lengthAdjust="spacing" textLength="42.123" x="252.1627" y="1337.6074">Pricing</text><text fill="#0F172A" font-family="Segoe UI" font-size="14" lengthAdjust="spacing" textLength="93.1602" x="252.1627" y="1356.2285">&#171;Value Object&#187;</text></g><!--entity ContactInfo--><g id="elem_ContactInfo"><rect fill="#FFFFFF" height="57.2422" rx="5" ry="5" style="stroke:#64748B;stroke-width:0.5;" width="113.1602" x="242.1627" y="1237.5"/><text fill="#0F172A" font-family="Segoe UI" font-size="14" lengthAdjust="spacing" textLength="72.1055" x="252.1627" y="1262.6074">ContactInfo</text><text fill="#0F172A" font-family="Segoe UI" font-size="14" lengthAdjust="spacing" textLength="93.1602" x="252.1627" y="1281.2285">&#171;Value Object&#187;</text></g><!--entity Schedule--><g id="elem_Schedule"><rect fill="#FFFFFF" height="57.2422" rx="5" ry="5" style="stroke:#64748B;stroke-width:0.5;" width="113.1602" x="242.1627" y="1162.5"/><text fill="#0F172A" font-family="Segoe UI" font-size="14" lengthAdjust="spacing" textLength="56.0273" x="252.1627" y="1187.6074">Schedule</text><text fill="#0F172A" font-family="Segoe UI" font-size="14" lengthAdjust="spacing" textLength="93.1602" x="252.1627" y="1206.2285">&#171;Value Object&#187;</text></g><!--entity GymAnalytics--><g id="elem_GymAnalytics"><rect fill="#FFFFFF" height="57.2422" rx="5" ry="5" style="stroke:#64748B;stroke-width:0.5;" width="113.1602" x="242.1627" y="1087.5"/><text fill="#0F172A" font-family="Segoe UI" font-size="14" lengthAdjust="spacing" textLength="83.2207" x="252.1627" y="1112.6074">GymAnalytics</text><text fill="#0F172A" font-family="Segoe UI" font-size="14" lengthAdjust="spacing" textLength="93.1602" x="252.1627" y="1131.2285">&#171;Value Object&#187;</text></g><!--entity Sponsorship--><g id="elem_Sponsorship"><rect fill="#FFFFFF" height="57.2422" rx="5" ry="5" style="stroke:#64748B;stroke-width:0.5;" width="113.1602" x="242.1627" y="1012.5"/><text fill="#0F172A" font-family="Segoe UI" font-size="14" lengthAdjust="spacing" textLength="76.2891" x="252.1627" y="1037.6074">Sponsorship</text><text fill="#0F172A" font-family="Segoe UI" font-size="14" lengthAdjust="spacing" textLength="93.1602" x="252.1627" y="1056.2285">&#171;Value Object&#187;</text></g><!--entity Membership--><g id="elem_Membership"><rect fill="#FFFFFF" height="57.2422" rx="5" ry="5" style="stroke:#64748B;stroke-width:0.5;" width="132.6631" x="47.1627" y="689.5"/><text fill="#0F172A" font-family="Segoe UI" font-size="14" lengthAdjust="spacing" textLength="106.292" x="57.1627" y="714.6074">GymMembership</text><text fill="#0F172A" font-family="Segoe UI" font-size="14" lengthAdjust="spacing" textLength="112.6631" x="57.1627" y="733.2285">&#171;Aggregate Root&#187;</text></g><!--entity MembershipBilling--><g id="elem_MembershipBilling"><rect fill="#FFFFFF" height="57.2422" rx="5" ry="5" style="stroke:#64748B;stroke-width:0.5;" width="135.6094" x="230.6627" y="689.5"/><text fill="#0F172A" font-family="Segoe UI" font-size="14" lengthAdjust="spacing" textLength="115.6094" x="240.6627" y="714.6074">MembershipBilling</text><text fill="#0F172A" font-family="Segoe UI" font-size="14" lengthAdjust="spacing" textLength="93.1602" x="240.6627" y="733.2285">&#171;Value Object&#187;</text></g><!--entity Progress--><g id="elem_Progress"><rect fill="#FFFFFF" height="57.2422" rx="5" ry="5" style="stroke:#64748B;stroke-width:0.5;" width="132.6631" x="47.1627" y="221.5"/><text fill="#0F172A" font-family="Segoe UI" font-size="14" lengthAdjust="spacing" textLength="96.0518" x="57.1627" y="246.6074">TrainerProgress</text><text fill="#0F172A" font-family="Segoe UI" font-size="14" lengthAdjust="spacing" textLength="112.6631" x="57.1627" y="265.2285">&#171;Aggregate Root&#187;</text></g><!--entity Attendance--><g id="elem_Attendance"><rect fill="#FFFFFF" height="57.2422" rx="5" ry="5" style="stroke:#64748B;stroke-width:0.5;" width="113.1602" x="242.1627" y="408.5"/><text fill="#0F172A" font-family="Segoe UI" font-size="14" lengthAdjust="spacing" textLength="70.8408" x="252.1627" y="433.6074">Attendance</text><text fill="#0F172A" font-family="Segoe UI" font-size="14" lengthAdjust="spacing" textLength="93.1602" x="252.1627" y="452.2285">&#171;Value Object&#187;</text></g><!--entity ProgressMetric--><g id="elem_ProgressMetric"><rect fill="#FFFFFF" height="57.2422" rx="5" ry="5" style="stroke:#64748B;stroke-width:0.5;" width="113.1602" x="242.1627" y="333.5"/><text fill="#0F172A" font-family="Segoe UI" font-size="14" lengthAdjust="spacing" textLength="92.5859" x="252.1627" y="358.6074">ProgressMetric</text><text fill="#0F172A" font-family="Segoe UI" font-size="14" lengthAdjust="spacing" textLength="93.1602" x="252.1627" y="377.2285">&#171;Value Object&#187;</text></g><!--entity BodyMetric--><g id="elem_BodyMetric"><rect fill="#FFFFFF" height="57.2422" rx="5" ry="5" style="stroke:#64748B;stroke-width:0.5;" width="113.1602" x="242.1627" y="258.5"/><text fill="#0F172A" font-family="Segoe UI" font-size="14" lengthAdjust="spacing" textLength="70.6084" x="252.1627" y="283.6074">BodyMetric</text><text fill="#0F172A" font-family="Segoe UI" font-size="14" lengthAdjust="spacing" textLength="93.1602" x="252.1627" y="302.2285">&#171;Value Object&#187;</text></g><!--entity DietPlan--><g id="elem_DietPlan"><rect fill="#FFFFFF" height="57.2422" rx="5" ry="5" style="stroke:#64748B;stroke-width:0.5;" width="113.1602" x="242.1627" y="183.5"/><text fill="#0F172A" font-family="Segoe UI" font-size="14" lengthAdjust="spacing" textLength="51.5498" x="252.1627" y="208.6074">DietPlan</text><text fill="#0F172A" font-family="Segoe UI" font-size="14" lengthAdjust="spacing" textLength="93.1602" x="252.1627" y="227.2285">&#171;Value Object&#187;</text></g><!--entity Feedback--><g id="elem_Feedback"><rect fill="#FFFFFF" height="57.2422" rx="5" ry="5" style="stroke:#64748B;stroke-width:0.5;" width="78.502" x="259.1627" y="108.5"/><text fill="#0F172A" font-family="Segoe UI" font-size="14" lengthAdjust="spacing" textLength="58.502" x="269.1627" y="133.6074">Feedback</text><text fill="#0F172A" font-family="Segoe UI" font-size="14" lengthAdjust="spacing" textLength="48.8223" x="269.1627" y="152.2285">&#171;Entity&#187;</text></g><!--entity TraineeFeedback--><g id="elem_TraineeFeedback"><rect fill="#FFFFFF" height="57.2422" rx="5" ry="5" style="stroke:#64748B;stroke-width:0.5;" width="123.7832" x="236.6627" y="33.5"/><text fill="#0F172A" font-family="Segoe UI" font-size="14" lengthAdjust="spacing" textLength="103.7832" x="246.6627" y="58.6074">TraineeFeedback</text><text fill="#0F172A" font-family="Segoe UI" font-size="14" lengthAdjust="spacing" textLength="48.8223" x="246.6627" y="77.2285">&#171;Entity&#187;</text></g><!--entity Order--><g id="elem_Order"><rect fill="#FFFFFF" height="57.2422" rx="5" ry="5" style="stroke:#64748B;stroke-width:0.5;" width="132.6631" x="232.1627" y="834.5"/><text fill="#0F172A" font-family="Segoe UI" font-size="14" lengthAdjust="spacing" textLength="35.8545" x="242.1627" y="859.6074">Order</text><text fill="#0F172A" font-family="Segoe UI" font-size="14" lengthAdjust="spacing" textLength="112.6631" x="242.1627" y="878.2285">&#171;Aggregate Root&#187;</text></g><!--entity OrderItem--><g id="elem_OrderItem"><rect fill="#FFFFFF" height="57.2422" rx="5" ry="5" style="stroke:#64748B;stroke-width:0.5;" width="83.7041" x="437.1627" y="909.5"/><text fill="#0F172A" font-family="Segoe UI" font-size="14" lengthAdjust="spacing" textLength="63.7041" x="447.1627" y="934.6074">OrderItem</text><text fill="#0F172A" font-family="Segoe UI" font-size="14" lengthAdjust="spacing" textLength="48.8223" x="447.1627" y="953.2285">&#171;Entity&#187;</text></g><!--entity ShippingAddress--><g id="elem_ShippingAddress"><rect fill="#FFFFFF" height="57.2422" rx="5" ry="5" style="stroke:#64748B;stroke-width:0.5;" width="124.3574" x="417.1627" y="834.5"/><text fill="#0F172A" font-family="Segoe UI" font-size="14" lengthAdjust="spacing" textLength="104.3574" x="427.1627" y="859.6074">ShippingAddress</text><text fill="#0F172A" font-family="Segoe UI" font-size="14" lengthAdjust="spacing" textLength="93.1602" x="427.1627" y="878.2285">&#171;Value Object&#187;</text></g><!--entity StatusHistory--><g id="elem_StatusHistory"><rect fill="#FFFFFF" height="57.2422" rx="5" ry="5" style="stroke:#64748B;stroke-width:0.5;" width="133.1621" x="577.1627" y="909.5"/><text fill="#0F172A" font-family="Segoe UI" font-size="14" lengthAdjust="spacing" textLength="113.1621" x="587.1627" y="934.6074">StatusHistoryEntry</text><text fill="#0F172A" font-family="Segoe UI" font-size="14" lengthAdjust="spacing" textLength="93.1602" x="587.1627" y="953.2285">&#171;Value Object&#187;</text></g><!--entity Subscription--><g id="elem_Subscription"><rect fill="#FFFFFF" height="57.2422" rx="5" ry="5" style="stroke:#64748B;stroke-width:0.5;" width="165.4072" x="216.1627" y="511.5"/><text fill="#0F172A" font-family="Segoe UI" font-size="14" lengthAdjust="spacing" textLength="145.4072" x="226.1627" y="536.6074">GymListingSubscription</text><text fill="#0F172A" font-family="Segoe UI" font-size="14" lengthAdjust="spacing" textLength="112.6631" x="226.1627" y="555.2285">&#171;Aggregate Root&#187;</text></g><!--entity Invoice--><g id="elem_Invoice"><rect fill="#FFFFFF" height="57.2422" rx="5" ry="5" style="stroke:#64748B;stroke-width:0.5;" width="113.1602" x="422.6627" y="586.5"/><text fill="#0F172A" font-family="Segoe UI" font-size="14" lengthAdjust="spacing" textLength="43.7363" x="432.6627" y="611.6074">Invoice</text><text fill="#0F172A" font-family="Segoe UI" font-size="14" lengthAdjust="spacing" textLength="93.1602" x="432.6627" y="630.2285">&#171;Value Object&#187;</text></g><!--entity PaymentPeriod--><g id="elem_PaymentPeriod"><rect fill="#FFFFFF" height="57.2422" rx="5" ry="5" style="stroke:#64748B;stroke-width:0.5;" width="113.6523" x="422.1627" y="511.5"/><text fill="#0F172A" font-family="Segoe UI" font-size="14" lengthAdjust="spacing" textLength="93.6523" x="432.1627" y="536.6074">PaymentPeriod</text><text fill="#0F172A" font-family="Segoe UI" font-size="14" lengthAdjust="spacing" textLength="93.1602" x="432.1627" y="555.2285">&#171;Value Object&#187;</text></g><polygon fill="#181818" points="172.0662,1219.7482,173.6749,1226.7776,180.7823,1227.9962,179.1736,1220.9668,172.0662,1219.7482" style="stroke:#181818;stroke-width:1;"/><path d="M180.7823,1227.9962 C183.7861,1230.8387 177.812,1225.6708 180.1627,1229 C219.2811,1284.3991 165.4314,1326.3374 208.1627,1379 C216.8498,1389.7061 229.1545,1397.3498 241.8679,1402.7945 " fill="none" style="stroke:#181818;stroke-width:1;"/><polygon fill="#181818" points="170.8068,1219.7226,172.8018,1226.6522,179.9657,1227.4759,177.9707,1220.5462,170.8068,1219.7226" style="stroke:#181818;stroke-width:1;"/><path d="M179.9657,1227.4759 C183.3571,1230.3468 177.3639,1225.6852 180.1627,1229 C203.1171,1256.1859 183.4438,1278.408 208.1627,1304 C217.3907,1313.5539 229.4464,1320.7347 241.7058,1326.0974 " fill="none" style="stroke:#181818;stroke-width:1;"/><polygon fill="#181818" points="180.213,1217.8649,184.248,1223.8414,191.3167,1222.4156,187.2818,1216.439,180.213,1217.8649" style="stroke:#181818;stroke-width:1;"/><path d="M191.3167,1222.4156 C211.5207,1230.6959 222.4612,1235.1797 241.9384,1243.1622 " fill="none" style="stroke:#181818;stroke-width:1;"/><polygon fill="#181818" points="180.213,1191,186.213,1195,192.213,1191,186.213,1187,180.213,1191" style="stroke:#181818;stroke-width:1;"/><path d="M192.213,1191 C212.4171,1191 222.4612,1191 241.9384,1191 " fill="none" style="stroke:#181818;stroke-width:1;"/><polygon fill="#181818" points="180.213,1164.1351,187.2818,1165.561,191.3167,1159.5844,184.248,1158.1586,180.213,1164.1351" style="stroke:#181818;stroke-width:1;"/><path d="M191.3167,1159.5844 C211.5207,1151.3041 222.4612,1146.8203 241.9384,1138.8378 " fill="none" style="stroke:#181818;stroke-width:1;"/><polygon fill="#181818" points="132.7761,1162.4123,139.4625,1159.7118,139.5414,1152.5011,132.855,1155.2016,132.7761,1162.4123" style="stroke:#181818;stroke-width:1;"/><path d="M139.5414,1152.5011 C156.4864,1127.6767 177.04,1102.0924 208.1627,1079 C218.3302,1071.456 230.222,1065.0707 241.9551,1059.8127 " fill="none" style="stroke:#181818;stroke-width:1;"/><polygon fill="#181818" points="180.213,718,186.213,722,192.213,718,186.213,714,180.213,718" style="stroke:#181818;stroke-width:1;"/><path d="M192.213,718 C208.5198,718 214.0254,718 230.4125,718 " fill="none" style="stroke:#181818;stroke-width:1;"/><polygon fill="#181818" points="126.0072,278.5844,124.7397,285.6832,130.8049,289.5836,132.0724,282.4848,126.0072,278.5844" style="stroke:#181818;stroke-width:1;"/><path d="M130.8049,289.5836 C145.3143,322.8475 168.5882,366.4835 208.1627,400 C218.0422,408.3671 230.0755,415.0482 242.0733,420.3007 " fill="none" style="stroke:#181818;stroke-width:1;"/><polygon fill="#181818" points="146.4188,278.6458,148.4055,285.5779,155.5684,286.4102,153.5817,279.4782,146.4188,278.6458" style="stroke:#181818;stroke-width:1;"/><path d="M155.5684,286.4102 C172.9742,301.1808 186.2645,311.0069 208.1627,324 C218.7606,330.2881 230.5919,336.08 242.0916,341.1473 " fill="none" style="stroke:#181818;stroke-width:1;"/><polygon fill="#181818" points="180.213,263.2533,185.3013,268.3631,191.975,265.6315,186.8868,260.5217,180.213,263.2533" style="stroke:#181818;stroke-width:1;"/><path d="M191.975,265.6315 C212.1791,269.7164 222.4612,271.7953 241.9384,275.7333 " fill="none" style="stroke:#181818;stroke-width:1;"/><polygon fill="#181818" points="180.213,236.3885,186.901,239.085,191.9624,233.9487,185.2745,231.2521,180.213,236.3885" style="stroke:#181818;stroke-width:1;"/><path d="M191.9624,233.9487 C212.1664,229.7533 222.4612,227.6156 241.9384,223.5712 " fill="none" style="stroke:#181818;stroke-width:1;"/><polygon fill="#181818" points="145.4087,221.1771,152.5559,220.2193,154.4206,213.2534,147.2734,214.2113,145.4087,221.1771" style="stroke:#181818;stroke-width:1;"/><path d="M154.4206,213.2534 C171.8917,197.8922 185.6984,187.3824 208.1627,174 C224.052,164.5345 242.8109,156.372 259.0398,150.1405 " fill="none" style="stroke:#181818;stroke-width:1;"/><polygon fill="#181818" points="125.9587,221.2239,132.0098,217.3017,130.7166,210.2075,124.6655,214.1297,125.9587,221.2239" style="stroke:#181818;stroke-width:1;"/><path d="M130.7166,210.2075 C145.1793,176.7207 168.4483,132.7367 208.1627,99 C216.492,91.9244 226.3615,86.0566 236.4521,81.2394 " fill="none" style="stroke:#181818;stroke-width:1;"/><polygon fill="#181818" points="365.3691,890.6077,369.3512,896.6196,376.4322,895.2561,372.4501,889.2442,365.3691,890.6077" style="stroke:#181818;stroke-width:1;"/><path d="M376.4322,895.2561 C400.3892,905.322 415.7205,911.7638 436.9499,920.6837 " fill="none" style="stroke:#181818;stroke-width:1;"/><polygon fill="#181818" points="365.3691,863,371.3691,867,377.3691,863,371.3691,859,365.3691,863" style="stroke:#181818;stroke-width:1;"/><path d="M377.3691,863 C394.2682,863 400.3802,863 417.0365,863 " fill="none" style="stroke:#181818;stroke-width:1;"/><polygon fill="#181818" points="521.1683,938,527.1683,942,533.1683,938,527.1683,934,521.1683,938" style="stroke:#181818;stroke-width:1;"/><path d="M533.1683,938 C550.0923,938 558.1329,938 577.0069,938 " fill="none" style="stroke:#181818;stroke-width:1;"/><polygon fill="#181818" points="367.6551,568.5682,371.6372,574.5801,378.7183,573.2166,374.7362,567.2047,367.6551,568.5682" style="stroke:#181818;stroke-width:1;"/><path d="M378.7183,573.2166 C396.8466,580.8335 405.1541,584.3241 422.533,591.6262 " fill="none" style="stroke:#181818;stroke-width:1;"/><polygon fill="#181818" points="381.3381,540,387.3381,544,393.3381,540,387.3381,536,381.3381,540" style="stroke:#181818;stroke-width:1;"/><path d="M393.3381,540 C407.108,540 409.1201,540 422.0507,540 " fill="none" style="stroke:#181818;stroke-width:1;"/><rect fill="#DDDDDD" height="71.1836" id="_legend" rx="7.5" ry="7.5" style="stroke:#000000;stroke-width:1;" width="403.6816" x="268.3184" y="1467"/><text fill="#000000" font-family="Segoe UI" font-size="18" font-weight="bold" lengthAdjust="spacing" textLength="153.29" x="273.3184" y="1491.4238">Aggregate View =</text><text fill="#000000" font-family="Segoe UI" font-size="14" lengthAdjust="spacing" textLength="249.1084" x="273.3184" y="1511.0488">Each package is a consistency boundary.</text><text fill="#000000" font-family="Segoe UI" font-size="14" lengthAdjust="spacing" textLength="393.6816" x="273.3184" y="1529.6699">Nested elements are modified through the aggregate root only.</text><!--SRC=[ZLRBRjim4BphAxRfhO2Bf4cQ7980TXgt1l8muZQNjWTQN4jiA5AWw0P2qN_lqhOaKZA3-c9ZPsPVtANvfZGiAnX8LkkrXQf0onHB9AuiM0r6PBa5BWocLcYLLCz2bSom0ggSSVqYL0Oh9Ylqa9Abpop3XQqbWXCobKcV88L2MvS8sjXSUm375LjBEzNAthC2OO6PHlWsyoXASwomXDDJpsYOUdR6iyDX6l0d0PZGxypejUBNMce3RwVdq_7qsY7QS3Gxw_7noH4v1d0Px6o7qwEp3sEoFMxbHg61eyFahn-_AJ8IRFFf1_juSdPoFldVO4bJpi7dke1nbXdCcCK3O1MGfJLiCkZoSUmVwkAYmn-rjbTNZIuat-gKkMDsYYScrmWFory4x_WD78hcHgGq1X7D3WqbrrGnI-rChNH4vZ52wIBDaQybHdGDF6Z2M35PMv5M4Q5FwKKijQgqgN9Hne9s39Awytat6ldTQanTCnfBM6TZzQfeJBtyMgONsX-IEooMk37tPgK3NXkPZXKTdeuIgZlxH4WP7um1ZznuMRlYXXI_nA-62RSUSwCflQhg5Rg36pHQROyNhRSXXEgnjQWuKsbi83j2VsksxkxGqb14bySdXGuccjUlYZj2AFmaqCubYorv0uUYAI9VKkUTw4PPOUiTlG7sDHMZgXvEulOKtS47JGkGGKS2D2WvGBog0diiWtw2_k0zk4kyDsqRMtJ6DcXqiZRe7i7COZ7eN8lqBYbQaf8sPCnvCyNxBggGrNDXcLrNNqHbjQaffgbZNdmY-TZsmtNDJwwp3gEsl2qU-FCxlLWlgzI8qbsZlORxq6itsIsvfTW-FNeGFYbqD5E_jOZk-0xjBJYh2rHsZaPe7jjldqFoe5xNcixp00grrBNW5J3wdWlEKVtSFE16L_lk_MJVVq4hfCUT8bqus4dqLkthzfvFGk_AZ3Px-woagYwxKuKdWIzmISORbkRjwqrKm22bFpawHrHf3KltCcAcVa_CUoGZ1vJeMa5CWr1eBbQ2h3QdDrYMqpS2QwCOEcxGIfAU4jccymy0]--></g></svg>