<svg xmlns="http://www.w3.org/2000/svg" xmlns:xlink="http://www.w3.org/1999/xlink" contentStyleType="text/css" height="1112px" preserveAspectRatio="none" style="width:815px;height:1112px;background:#FFFFFF;" version="1.1" viewBox="0 0 815 1112" width="815px" zoomAndPan="magnify"><defs/><g><!--cluster ASC--><g id="cluster_ASC"><rect fill="#F8FAFC" height="233" rx="5" ry="5" style="stroke:#334155;stroke-width:1.5;" width="200" x="7" y="873"/><text fill="#0F172A" font-family="Segoe UI" font-size="14" font-weight="bold" lengthAdjust="spacing" textLength="184.584" x="14.708" y="890.1074">Administration and Support</text><text fill="#0F172A" font-family="Segoe UI" font-size="14" font-weight="bold" lengthAdjust="spacing" textLength="51.9668" x="81.0166" y="908.7285">Context</text></g><!--cluster IAC--><g id="cluster_IAC"><rect fill="#F8FAFC" height="153" rx="5" ry="5" style="stroke:#334155;stroke-width:1.5;" width="143" x="36" y="680"/><text fill="#0F172A" font-family="Segoe UI" font-size="14" font-weight="bold" lengthAdjust="spacing" textLength="127.1279" x="43.936" y="697.1074">Identity and Access</text><text fill="#0F172A" font-family="Segoe UI" font-size="14" font-weight="bold" lengthAdjust="spacing" textLength="51.9668" x="81.5166" y="715.7285">Context</text></g><!--cluster GMC--><g id="cluster_GMC"><rect fill="#F8FAFC" height="302" rx="5" ry="5" style="stroke:#334155;stroke-width:1.5;" width="404.5" x="48" y="7"/><text fill="#0F172A" font-family="Segoe UI" font-size="14" font-weight="bold" lengthAdjust="spacing" textLength="213.4453" x="143.5273" y="24.1074">Gym Discovery and Membership</text><text fill="#0F172A" font-family="Segoe UI" font-size="14" font-weight="bold" lengthAdjust="spacing" textLength="51.9668" x="224.2666" y="42.7285">Context</text></g><!--cluster TEC--><g id="cluster_TEC"><rect fill="#F8FAFC" height="222" rx="5" ry="5" style="stroke:#334155;stroke-width:1.5;" width="400" x="262" y="884"/><text fill="#0F172A" font-family="Segoe UI" font-size="14" font-weight="bold" lengthAdjust="spacing" textLength="133.4443" x="395.2778" y="901.1074">Trainer Engagement</text><text fill="#0F172A" font-family="Segoe UI" font-size="14" font-weight="bold" lengthAdjust="spacing" textLength="51.9668" x="436.0166" y="919.7285">Context</text></g><!--cluster MPC--><g id="cluster_MPC"><rect fill="#F8FAFC" height="302" rx="5" ry="5" style="stroke:#334155;stroke-width:1.5;" width="364.5" x="295.5" y="542"/><text fill="#0F172A" font-family="Segoe UI" font-size="14" font-weight="bold" lengthAdjust="spacing" textLength="185.582" x="384.959" y="559.1074">Marketplace and Fulfillment</text><text fill="#0F172A" font-family="Segoe UI" font-size="14" font-weight="bold" lengthAdjust="spacing" textLength="51.9668" x="451.7666" y="577.7285">Context</text></g><!--cluster MRC--><g id="cluster_MRC"><rect fill="#F8FAFC" height="153" rx="5" ry="5" style="stroke:#334155;stroke-width:1.5;" width="562" x="247" y="349"/><text fill="#0F172A" font-family="Segoe UI" font-size="14" font-weight="bold" lengthAdjust="spacing" textLength="176.9072" x="439.5464" y="366.1074">Monetization and Revenue</text><text fill="#0F172A" font-family="Segoe UI" font-size="14" font-weight="bold" lengthAdjust="spacing" textLength="51.9668" x="502.0166" y="384.7285">Context</text></g><!--class SystemSetting--><g id="elem_SystemSetting"><rect codeLine="20" fill="#FFFFFF" height="44.582" id="SystemSetting" rx="2.5" ry="2.5" style="stroke:#64748B;stroke-width:0.5;" width="120.0811" x="47" y="937.5"/><ellipse cx="62" cy="959.791" fill="#ADD1B2" rx="11" ry="11" style="stroke:#181818;stroke-width:1;"/><path d="M64.7656,955.666 Q64.9219,955.4473 65.1094,955.3379 Q65.2969,955.2285 65.5156,955.2285 Q65.8906,955.2285 66.125,955.4941 Q66.3594,955.7441 66.3594,956.3535 L66.3594,957.8066 Q66.3594,958.416 66.125,958.6816 Q65.8906,958.9473 65.5156,958.9473 Q65.1719,958.9473 64.9688,958.7441 Q64.7656,958.5566 64.6563,958.041 Q64.6094,957.6816 64.4219,957.4941 Q64.0938,957.1191 63.4844,956.9004 Q62.875,956.6816 62.25,956.6816 Q61.4844,956.6816 60.8438,957.0098 Q60.2188,957.3379 59.7188,958.0879 Q59.2344,958.8379 59.2344,959.8691 L59.2344,960.9629 Q59.2344,962.1973 60.125,963.0254 Q61.0156,963.8379 62.6094,963.8379 Q63.5469,963.8379 64.2031,963.5879 Q64.5938,963.4316 65.0156,962.9941 Q65.2813,962.7285 65.4219,962.6504 Q65.5781,962.5723 65.7813,962.5723 Q66.1094,962.5723 66.3594,962.8379 Q66.625,963.0879 66.625,963.4316 Q66.625,963.7754 66.2813,964.1816 Q65.7813,964.7598 64.9844,965.0879 Q63.9063,965.541 62.6094,965.541 Q61.0938,965.541 59.8906,964.916 Q58.9063,964.416 58.2188,963.3535 Q57.5313,962.2754 57.5313,960.9941 L57.5313,959.8379 Q57.5313,958.5098 58.1406,957.3691 Q58.7656,956.2129 59.8594,955.6035 Q60.9531,954.9785 62.1875,954.9785 Q62.9219,954.9785 63.5625,955.1504 Q64.2188,955.3066 64.7656,955.666 Z " fill="#000000"/><text fill="#000000" font-family="Segoe UI" font-size="12" font-style="italic" lengthAdjust="spacing" textLength="41.7422" x="99.1694" y="955.4492">&#171;Entity&#187;</text><text fill="#0F172A" font-family="Segoe UI" font-size="14" lengthAdjust="spacing" textLength="88.0811" x="76" y="973.5684">SystemSetting</text></g><!--class ContactMessage--><g id="elem_ContactMessage"><rect codeLine="21" fill="#FFFFFF" height="44.582" id="ContactMessage" rx="2.5" ry="2.5" style="stroke:#64748B;stroke-width:0.5;" width="134.334" x="40" y="1017.5"/><ellipse cx="55" cy="1039.791" fill="#ADD1B2" rx="11" ry="11" style="stroke:#181818;stroke-width:1;"/><path d="M57.7656,1035.666 Q57.9219,1035.4473 58.1094,1035.3379 Q58.2969,1035.2285 58.5156,1035.2285 Q58.8906,1035.2285 59.125,1035.4941 Q59.3594,1035.7441 59.3594,1036.3535 L59.3594,1037.8066 Q59.3594,1038.416 59.125,1038.6816 Q58.8906,1038.9473 58.5156,1038.9473 Q58.1719,1038.9473 57.9688,1038.7441 Q57.7656,1038.5566 57.6563,1038.041 Q57.6094,1037.6816 57.4219,1037.4941 Q57.0938,1037.1191 56.4844,1036.9004 Q55.875,1036.6816 55.25,1036.6816 Q54.4844,1036.6816 53.8438,1037.0098 Q53.2188,1037.3379 52.7188,1038.0879 Q52.2344,1038.8379 52.2344,1039.8691 L52.2344,1040.9629 Q52.2344,1042.1973 53.125,1043.0254 Q54.0156,1043.8379 55.6094,1043.8379 Q56.5469,1043.8379 57.2031,1043.5879 Q57.5938,1043.4316 58.0156,1042.9941 Q58.2813,1042.7285 58.4219,1042.6504 Q58.5781,1042.5723 58.7813,1042.5723 Q59.1094,1042.5723 59.3594,1042.8379 Q59.625,1043.0879 59.625,1043.4316 Q59.625,1043.7754 59.2813,1044.1816 Q58.7813,1044.7598 57.9844,1045.0879 Q56.9063,1045.541 55.6094,1045.541 Q54.0938,1045.541 52.8906,1044.916 Q51.9063,1044.416 51.2188,1043.3535 Q50.5313,1042.2754 50.5313,1040.9941 L50.5313,1039.8379 Q50.5313,1038.5098 51.1406,1037.3691 Q51.7656,1036.2129 52.8594,1035.6035 Q53.9531,1034.9785 55.1875,1034.9785 Q55.9219,1034.9785 56.5625,1035.1504 Q57.2188,1035.3066 57.7656,1035.666 Z " fill="#000000"/><text fill="#000000" font-family="Segoe UI" font-size="12" font-style="italic" lengthAdjust="spacing" textLength="41.7422" x="99.2959" y="1035.4492">&#171;Entity&#187;</text><text fill="#0F172A" font-family="Segoe UI" font-size="14" lengthAdjust="spacing" textLength="102.334" x="69" y="1053.5684">ContactMessage</text></g><!--class User--><g id="elem_User"><rect codeLine="25" fill="#FFFFFF" height="44.582" id="User" rx="2.5" ry="2.5" style="stroke:#64748B;stroke-width:0.5;" width="69.7422" x="72" y="744.5"/><ellipse cx="87" cy="766.791" fill="#ADD1B2" rx="11" ry="11" style="stroke:#181818;stroke-width:1;"/><path d="M89.7656,762.666 Q89.9219,762.4473 90.1094,762.3379 Q90.2969,762.2285 90.5156,762.2285 Q90.8906,762.2285 91.125,762.4941 Q91.3594,762.7441 91.3594,763.3535 L91.3594,764.8066 Q91.3594,765.416 91.125,765.6816 Q90.8906,765.9473 90.5156,765.9473 Q90.1719,765.9473 89.9688,765.7441 Q89.7656,765.5566 89.6563,765.041 Q89.6094,764.6816 89.4219,764.4941 Q89.0938,764.1191 88.4844,763.9004 Q87.875,763.6816 87.25,763.6816 Q86.4844,763.6816 85.8438,764.0098 Q85.2188,764.3379 84.7188,765.0879 Q84.2344,765.8379 84.2344,766.8691 L84.2344,767.9629 Q84.2344,769.1973 85.125,770.0254 Q86.0156,770.8379 87.6094,770.8379 Q88.5469,770.8379 89.2031,770.5879 Q89.5938,770.4316 90.0156,769.9941 Q90.2813,769.7285 90.4219,769.6504 Q90.5781,769.5723 90.7813,769.5723 Q91.1094,769.5723 91.3594,769.8379 Q91.625,770.0879 91.625,770.4316 Q91.625,770.7754 91.2813,771.1816 Q90.7813,771.7598 89.9844,772.0879 Q88.9063,772.541 87.6094,772.541 Q86.0938,772.541 84.8906,771.916 Q83.9063,771.416 83.2188,770.3535 Q82.5313,769.2754 82.5313,767.9941 L82.5313,766.8379 Q82.5313,765.5098 83.1406,764.3691 Q83.7656,763.2129 84.8594,762.6035 Q85.9531,761.9785 87.1875,761.9785 Q87.9219,761.9785 88.5625,762.1504 Q89.2188,762.3066 89.7656,762.666 Z " fill="#000000"/><text fill="#000000" font-family="Segoe UI" font-size="12" font-style="italic" lengthAdjust="spacing" textLength="41.7422" x="99" y="762.4492">&#171;Entity&#187;</text><text fill="#0F172A" font-family="Segoe UI" font-size="14" lengthAdjust="spacing" textLength="27.7471" x="105.9976" y="780.5684">User</text></g><!--class Gym--><g id="elem_Gym"><rect codeLine="29" fill="#FFFFFF" height="44.582" id="Gym" rx="2.5" ry="2.5" style="stroke:#64748B;stroke-width:0.5;" width="69.7422" x="72" y="151.5"/><ellipse cx="87" cy="173.791" fill="#ADD1B2" rx="11" ry="11" style="stroke:#181818;stroke-width:1;"/><path d="M89.7656,169.666 Q89.9219,169.4473 90.1094,169.3379 Q90.2969,169.2285 90.5156,169.2285 Q90.8906,169.2285 91.125,169.4941 Q91.3594,169.7441 91.3594,170.3535 L91.3594,171.8066 Q91.3594,172.416 91.125,172.6816 Q90.8906,172.9473 90.5156,172.9473 Q90.1719,172.9473 89.9688,172.7441 Q89.7656,172.5566 89.6563,172.041 Q89.6094,171.6816 89.4219,171.4941 Q89.0938,171.1191 88.4844,170.9004 Q87.875,170.6816 87.25,170.6816 Q86.4844,170.6816 85.8438,171.0098 Q85.2188,171.3379 84.7188,172.0879 Q84.2344,172.8379 84.2344,173.8691 L84.2344,174.9629 Q84.2344,176.1973 85.125,177.0254 Q86.0156,177.8379 87.6094,177.8379 Q88.5469,177.8379 89.2031,177.5879 Q89.5938,177.4316 90.0156,176.9941 Q90.2813,176.7285 90.4219,176.6504 Q90.5781,176.5723 90.7813,176.5723 Q91.1094,176.5723 91.3594,176.8379 Q91.625,177.0879 91.625,177.4316 Q91.625,177.7754 91.2813,178.1816 Q90.7813,178.7598 89.9844,179.0879 Q88.9063,179.541 87.6094,179.541 Q86.0938,179.541 84.8906,178.916 Q83.9063,178.416 83.2188,177.3535 Q82.5313,176.2754 82.5313,174.9941 L82.5313,173.8379 Q82.5313,172.5098 83.1406,171.3691 Q83.7656,170.2129 84.8594,169.6035 Q85.9531,168.9785 87.1875,168.9785 Q87.9219,168.9785 88.5625,169.1504 Q89.2188,169.3066 89.7656,169.666 Z " fill="#000000"/><text fill="#000000" font-family="Segoe UI" font-size="12" font-style="italic" lengthAdjust="spacing" textLength="41.7422" x="99" y="169.4492">&#171;Entity&#187;</text><text fill="#0F172A" font-family="Segoe UI" font-size="14" lengthAdjust="spacing" textLength="28.4375" x="105.6523" y="187.5684">Gym</text></g><!--class GymMembership--><g id="elem_GymMembership"><rect codeLine="30" fill="#FFFFFF" height="44.582" id="GymMembership" rx="2.5" ry="2.5" style="stroke:#64748B;stroke-width:0.5;" width="138.292" x="290.5" y="231.5"/><ellipse cx="305.5" cy="253.791" fill="#ADD1B2" rx="11" ry="11" style="stroke:#181818;stroke-width:1;"/><path d="M308.2656,249.666 Q308.4219,249.4473 308.6094,249.3379 Q308.7969,249.2285 309.0156,249.2285 Q309.3906,249.2285 309.625,249.4941 Q309.8594,249.7441 309.8594,250.3535 L309.8594,251.8066 Q309.8594,252.416 309.625,252.6816 Q309.3906,252.9473 309.0156,252.9473 Q308.6719,252.9473 308.4688,252.7441 Q308.2656,252.5566 308.1563,252.041 Q308.1094,251.6816 307.9219,251.4941 Q307.5938,251.1191 306.9844,250.9004 Q306.375,250.6816 305.75,250.6816 Q304.9844,250.6816 304.3438,251.0098 Q303.7188,251.3379 303.2188,252.0879 Q302.7344,252.8379 302.7344,253.8691 L302.7344,254.9629 Q302.7344,256.1973 303.625,257.0254 Q304.5156,257.8379 306.1094,257.8379 Q307.0469,257.8379 307.7031,257.5879 Q308.0938,257.4316 308.5156,256.9941 Q308.7813,256.7285 308.9219,256.6504 Q309.0781,256.5723 309.2813,256.5723 Q309.6094,256.5723 309.8594,256.8379 Q310.125,257.0879 310.125,257.4316 Q310.125,257.7754 309.7813,258.1816 Q309.2813,258.7598 308.4844,259.0879 Q307.4063,259.541 306.1094,259.541 Q304.5938,259.541 303.3906,258.916 Q302.4063,258.416 301.7188,257.3535 Q301.0313,256.2754 301.0313,254.9941 L301.0313,253.8379 Q301.0313,252.5098 301.6406,251.3691 Q302.2656,250.2129 303.3594,249.6035 Q304.4531,248.9785 305.6875,248.9785 Q306.4219,248.9785 307.0625,249.1504 Q307.7188,249.3066 308.2656,249.666 Z " fill="#000000"/><text fill="#000000" font-family="Segoe UI" font-size="12" font-style="italic" lengthAdjust="spacing" textLength="41.7422" x="351.7749" y="249.4492">&#171;Entity&#187;</text><text fill="#0F172A" font-family="Segoe UI" font-size="14" lengthAdjust="spacing" textLength="106.292" x="319.5" y="267.5684">GymMembership</text></g><!--class GymReview--><g id="elem_GymReview"><rect codeLine="31" fill="#FFFFFF" height="44.582" id="GymReview" rx="2.5" ry="2.5" style="stroke:#64748B;stroke-width:0.5;" width="103.668" x="307.5" y="151.5"/><ellipse cx="322.5" cy="173.791" fill="#ADD1B2" rx="11" ry="11" style="stroke:#181818;stroke-width:1;"/><path d="M325.2656,169.666 Q325.4219,169.4473 325.6094,169.3379 Q325.7969,169.2285 326.0156,169.2285 Q326.3906,169.2285 326.625,169.4941 Q326.8594,169.7441 326.8594,170.3535 L326.8594,171.8066 Q326.8594,172.416 326.625,172.6816 Q326.3906,172.9473 326.0156,172.9473 Q325.6719,172.9473 325.4688,172.7441 Q325.2656,172.5566 325.1563,172.041 Q325.1094,171.6816 324.9219,171.4941 Q324.5938,171.1191 323.9844,170.9004 Q323.375,170.6816 322.75,170.6816 Q321.9844,170.6816 321.3438,171.0098 Q320.7188,171.3379 320.2188,172.0879 Q319.7344,172.8379 319.7344,173.8691 L319.7344,174.9629 Q319.7344,176.1973 320.625,177.0254 Q321.5156,177.8379 323.1094,177.8379 Q324.0469,177.8379 324.7031,177.5879 Q325.0938,177.4316 325.5156,176.9941 Q325.7813,176.7285 325.9219,176.6504 Q326.0781,176.5723 326.2813,176.5723 Q326.6094,176.5723 326.8594,176.8379 Q327.125,177.0879 327.125,177.4316 Q327.125,177.7754 326.7813,178.1816 Q326.2813,178.7598 325.4844,179.0879 Q324.4063,179.541 323.1094,179.541 Q321.5938,179.541 320.3906,178.916 Q319.4063,178.416 318.7188,177.3535 Q318.0313,176.2754 318.0313,174.9941 L318.0313,173.8379 Q318.0313,172.5098 318.6406,171.3691 Q319.2656,170.2129 320.3594,169.6035 Q321.4531,168.9785 322.6875,168.9785 Q323.4219,168.9785 324.0625,169.1504 Q324.7188,169.3066 325.2656,169.666 Z " fill="#000000"/><text fill="#000000" font-family="Segoe UI" font-size="12" font-style="italic" lengthAdjust="spacing" textLength="41.7422" x="351.4629" y="169.4492">&#171;Entity&#187;</text><text fill="#0F172A" font-family="Segoe UI" font-size="14" lengthAdjust="spacing" textLength="71.668" x="336.5" y="187.5684">GymReview</text></g><!--class Gallery--><g id="elem_Gallery"><rect codeLine="32" fill="#FFFFFF" height="44.582" id="Gallery" rx="2.5" ry="2.5" style="stroke:#64748B;stroke-width:0.5;" width="74.4717" x="322.5" y="71.5"/><ellipse cx="337.5" cy="93.791" fill="#ADD1B2" rx="11" ry="11" style="stroke:#181818;stroke-width:1;"/><path d="M340.2656,89.666 Q340.4219,89.4473 340.6094,89.3379 Q340.7969,89.2285 341.0156,89.2285 Q341.3906,89.2285 341.625,89.4941 Q341.8594,89.7441 341.8594,90.3535 L341.8594,91.8066 Q341.8594,92.416 341.625,92.6816 Q341.3906,92.9473 341.0156,92.9473 Q340.6719,92.9473 340.4688,92.7441 Q340.2656,92.5566 340.1563,92.041 Q340.1094,91.6816 339.9219,91.4941 Q339.5938,91.1191 338.9844,90.9004 Q338.375,90.6816 337.75,90.6816 Q336.9844,90.6816 336.3438,91.0098 Q335.7188,91.3379 335.2188,92.0879 Q334.7344,92.8379 334.7344,93.8691 L334.7344,94.9629 Q334.7344,96.1973 335.625,97.0254 Q336.5156,97.8379 338.1094,97.8379 Q339.0469,97.8379 339.7031,97.5879 Q340.0938,97.4316 340.5156,96.9941 Q340.7813,96.7285 340.9219,96.6504 Q341.0781,96.5723 341.2813,96.5723 Q341.6094,96.5723 341.8594,96.8379 Q342.125,97.0879 342.125,97.4316 Q342.125,97.7754 341.7813,98.1816 Q341.2813,98.7598 340.4844,99.0879 Q339.4063,99.541 338.1094,99.541 Q336.5938,99.541 335.3906,98.916 Q334.4063,98.416 333.7188,97.3535 Q333.0313,96.2754 333.0313,94.9941 L333.0313,93.8379 Q333.0313,92.5098 333.6406,91.3691 Q334.2656,90.2129 335.3594,89.6035 Q336.4531,88.9785 337.6875,88.9785 Q338.4219,88.9785 339.0625,89.1504 Q339.7188,89.3066 340.2656,89.666 Z " fill="#000000"/><text fill="#000000" font-family="Segoe UI" font-size="12" font-style="italic" lengthAdjust="spacing" textLength="41.7422" x="351.8647" y="89.4492">&#171;Entity&#187;</text><text fill="#0F172A" font-family="Segoe UI" font-size="14" lengthAdjust="spacing" textLength="42.4717" x="351.5" y="107.5684">Gallery</text></g><!--class TrainerAssignment--><g id="elem_TrainerAssignment"><rect codeLine="39" fill="#FFFFFF" height="44.582" id="TrainerAssignment" rx="2.5" ry="2.5" style="stroke:#64748B;stroke-width:0.5;" width="147.3428" x="286" y="983.5"/><ellipse cx="301" cy="1005.791" fill="#ADD1B2" rx="11" ry="11" style="stroke:#181818;stroke-width:1;"/><path d="M303.7656,1001.666 Q303.9219,1001.4473 304.1094,1001.3379 Q304.2969,1001.2285 304.5156,1001.2285 Q304.8906,1001.2285 305.125,1001.4941 Q305.3594,1001.7441 305.3594,1002.3535 L305.3594,1003.8066 Q305.3594,1004.416 305.125,1004.6816 Q304.8906,1004.9473 304.5156,1004.9473 Q304.1719,1004.9473 303.9688,1004.7441 Q303.7656,1004.5566 303.6563,1004.041 Q303.6094,1003.6816 303.4219,1003.4941 Q303.0938,1003.1191 302.4844,1002.9004 Q301.875,1002.6816 301.25,1002.6816 Q300.4844,1002.6816 299.8438,1003.0098 Q299.2188,1003.3379 298.7188,1004.0879 Q298.2344,1004.8379 298.2344,1005.8691 L298.2344,1006.9629 Q298.2344,1008.1973 299.125,1009.0254 Q300.0156,1009.8379 301.6094,1009.8379 Q302.5469,1009.8379 303.2031,1009.5879 Q303.5938,1009.4316 304.0156,1008.9941 Q304.2813,1008.7285 304.4219,1008.6504 Q304.5781,1008.5723 304.7813,1008.5723 Q305.1094,1008.5723 305.3594,1008.8379 Q305.625,1009.0879 305.625,1009.4316 Q305.625,1009.7754 305.2813,1010.1816 Q304.7813,1010.7598 303.9844,1011.0879 Q302.9063,1011.541 301.6094,1011.541 Q300.0938,1011.541 298.8906,1010.916 Q297.9063,1010.416 297.2188,1009.3535 Q296.5313,1008.2754 296.5313,1006.9941 L296.5313,1005.8379 Q296.5313,1004.5098 297.1406,1003.3691 Q297.7656,1002.2129 298.8594,1001.6035 Q299.9531,1000.9785 301.1875,1000.9785 Q301.9219,1000.9785 302.5625,1001.1504 Q303.2188,1001.3066 303.7656,1001.666 Z " fill="#000000"/><text fill="#000000" font-family="Segoe UI" font-size="12" font-style="italic" lengthAdjust="spacing" textLength="41.7422" x="351.8003" y="1001.4492">&#171;Entity&#187;</text><text fill="#0F172A" font-family="Segoe UI" font-size="14" lengthAdjust="spacing" textLength="115.3428" x="315" y="1019.5684">TrainerAssignment</text></g><!--class TrainerProgress--><g id="elem_TrainerProgress"><rect codeLine="40" fill="#FFFFFF" height="44.582" id="TrainerProgress" rx="2.5" ry="2.5" style="stroke:#64748B;stroke-width:0.5;" width="128.0518" x="510" y="1028.5"/><ellipse cx="525" cy="1050.791" fill="#ADD1B2" rx="11" ry="11" style="stroke:#181818;stroke-width:1;"/><path d="M527.7656,1046.666 Q527.9219,1046.4473 528.1094,1046.3379 Q528.2969,1046.2285 528.5156,1046.2285 Q528.8906,1046.2285 529.125,1046.4941 Q529.3594,1046.7441 529.3594,1047.3535 L529.3594,1048.8066 Q529.3594,1049.416 529.125,1049.6816 Q528.8906,1049.9473 528.5156,1049.9473 Q528.1719,1049.9473 527.9688,1049.7441 Q527.7656,1049.5566 527.6563,1049.041 Q527.6094,1048.6816 527.4219,1048.4941 Q527.0938,1048.1191 526.4844,1047.9004 Q525.875,1047.6816 525.25,1047.6816 Q524.4844,1047.6816 523.8438,1048.0098 Q523.2188,1048.3379 522.7188,1049.0879 Q522.2344,1049.8379 522.2344,1050.8691 L522.2344,1051.9629 Q522.2344,1053.1973 523.125,1054.0254 Q524.0156,1054.8379 525.6094,1054.8379 Q526.5469,1054.8379 527.2031,1054.5879 Q527.5938,1054.4316 528.0156,1053.9941 Q528.2813,1053.7285 528.4219,1053.6504 Q528.5781,1053.5723 528.7813,1053.5723 Q529.1094,1053.5723 529.3594,1053.8379 Q529.625,1054.0879 529.625,1054.4316 Q529.625,1054.7754 529.2813,1055.1816 Q528.7813,1055.7598 527.9844,1056.0879 Q526.9063,1056.541 525.6094,1056.541 Q524.0938,1056.541 522.8906,1055.916 Q521.9063,1055.416 521.2188,1054.3535 Q520.5313,1053.2754 520.5313,1051.9941 L520.5313,1050.8379 Q520.5313,1049.5098 521.1406,1048.3691 Q521.7656,1047.2129 522.8594,1046.6035 Q523.9531,1045.9785 525.1875,1045.9785 Q525.9219,1045.9785 526.5625,1046.1504 Q527.2188,1046.3066 527.7656,1046.666 Z " fill="#000000"/><text fill="#000000" font-family="Segoe UI" font-size="12" font-style="italic" lengthAdjust="spacing" textLength="41.7422" x="566.1548" y="1046.4492">&#171;Entity&#187;</text><text fill="#0F172A" font-family="Segoe UI" font-size="14" lengthAdjust="spacing" textLength="96.0518" x="539" y="1064.5684">TrainerProgress</text></g><!--class Booking--><g id="elem_Booking"><rect codeLine="41" fill="#FFFFFF" height="44.582" id="Booking" rx="2.5" ry="2.5" style="stroke:#64748B;stroke-width:0.5;" width="82.9482" x="532.5" y="948.5"/><ellipse cx="547.5" cy="970.791" fill="#ADD1B2" rx="11" ry="11" style="stroke:#181818;stroke-width:1;"/><path d="M550.2656,966.666 Q550.4219,966.4473 550.6094,966.3379 Q550.7969,966.2285 551.0156,966.2285 Q551.3906,966.2285 551.625,966.4941 Q551.8594,966.7441 551.8594,967.3535 L551.8594,968.8066 Q551.8594,969.416 551.625,969.6816 Q551.3906,969.9473 551.0156,969.9473 Q550.6719,969.9473 550.4688,969.7441 Q550.2656,969.5566 550.1563,969.041 Q550.1094,968.6816 549.9219,968.4941 Q549.5938,968.1191 548.9844,967.9004 Q548.375,967.6816 547.75,967.6816 Q546.9844,967.6816 546.3438,968.0098 Q545.7188,968.3379 545.2188,969.0879 Q544.7344,969.8379 544.7344,970.8691 L544.7344,971.9629 Q544.7344,973.1973 545.625,974.0254 Q546.5156,974.8379 548.1094,974.8379 Q549.0469,974.8379 549.7031,974.5879 Q550.0938,974.4316 550.5156,973.9941 Q550.7813,973.7285 550.9219,973.6504 Q551.0781,973.5723 551.2813,973.5723 Q551.6094,973.5723 551.8594,973.8379 Q552.125,974.0879 552.125,974.4316 Q552.125,974.7754 551.7813,975.1816 Q551.2813,975.7598 550.4844,976.0879 Q549.4063,976.541 548.1094,976.541 Q546.5938,976.541 545.3906,975.916 Q544.4063,975.416 543.7188,974.3535 Q543.0313,973.2754 543.0313,971.9941 L543.0313,970.8379 Q543.0313,969.5098 543.6406,968.3691 Q544.2656,967.2129 545.3594,966.6035 Q546.4531,965.9785 547.6875,965.9785 Q548.4219,965.9785 549.0625,966.1504 Q549.7188,966.3066 550.2656,966.666 Z " fill="#000000"/><text fill="#000000" font-family="Segoe UI" font-size="12" font-style="italic" lengthAdjust="spacing" textLength="41.7422" x="566.103" y="966.4492">&#171;Entity&#187;</text><text fill="#0F172A" font-family="Segoe UI" font-size="14" lengthAdjust="spacing" textLength="50.9482" x="561.5" y="984.5684">Booking</text></g><!--class Product--><g id="elem_Product"><rect codeLine="47" fill="#FFFFFF" height="44.582" id="Product" rx="2.5" ry="2.5" style="stroke:#64748B;stroke-width:0.5;" width="80.2891" x="319.5" y="686.5"/><ellipse cx="334.5" cy="708.791" fill="#ADD1B2" rx="11" ry="11" style="stroke:#181818;stroke-width:1;"/><path d="M337.2656,704.666 Q337.4219,704.4473 337.6094,704.3379 Q337.7969,704.2285 338.0156,704.2285 Q338.3906,704.2285 338.625,704.4941 Q338.8594,704.7441 338.8594,705.3535 L338.8594,706.8066 Q338.8594,707.416 338.625,707.6816 Q338.3906,707.9473 338.0156,707.9473 Q337.6719,707.9473 337.4688,707.7441 Q337.2656,707.5566 337.1563,707.041 Q337.1094,706.6816 336.9219,706.4941 Q336.5938,706.1191 335.9844,705.9004 Q335.375,705.6816 334.75,705.6816 Q333.9844,705.6816 333.3438,706.0098 Q332.7188,706.3379 332.2188,707.0879 Q331.7344,707.8379 331.7344,708.8691 L331.7344,709.9629 Q331.7344,711.1973 332.625,712.0254 Q333.5156,712.8379 335.1094,712.8379 Q336.0469,712.8379 336.7031,712.5879 Q337.0938,712.4316 337.5156,711.9941 Q337.7813,711.7285 337.9219,711.6504 Q338.0781,711.5723 338.2813,711.5723 Q338.6094,711.5723 338.8594,711.8379 Q339.125,712.0879 339.125,712.4316 Q339.125,712.7754 338.7813,713.1816 Q338.2813,713.7598 337.4844,714.0879 Q336.4063,714.541 335.1094,714.541 Q333.5938,714.541 332.3906,713.916 Q331.4063,713.416 330.7188,712.3535 Q330.0313,711.2754 330.0313,709.9941 L330.0313,708.8379 Q330.0313,707.5098 330.6406,706.3691 Q331.2656,705.2129 332.3594,704.6035 Q333.4531,703.9785 334.6875,703.9785 Q335.4219,703.9785 336.0625,704.1504 Q336.7188,704.3066 337.2656,704.666 Z " fill="#000000"/><text fill="#000000" font-family="Segoe UI" font-size="12" font-style="italic" lengthAdjust="spacing" textLength="41.7422" x="351.7734" y="704.4492">&#171;Entity&#187;</text><text fill="#0F172A" font-family="Segoe UI" font-size="14" lengthAdjust="spacing" textLength="48.2891" x="348.5" y="722.5684">Product</text></g><!--class Order--><g id="elem_Order"><rect codeLine="48" fill="#FFFFFF" height="44.582" id="Order" rx="2.5" ry="2.5" style="stroke:#64748B;stroke-width:0.5;" width="69.7422" x="539" y="766.5"/><ellipse cx="554" cy="788.791" fill="#ADD1B2" rx="11" ry="11" style="stroke:#181818;stroke-width:1;"/><path d="M556.7656,784.666 Q556.9219,784.4473 557.1094,784.3379 Q557.2969,784.2285 557.5156,784.2285 Q557.8906,784.2285 558.125,784.4941 Q558.3594,784.7441 558.3594,785.3535 L558.3594,786.8066 Q558.3594,787.416 558.125,787.6816 Q557.8906,787.9473 557.5156,787.9473 Q557.1719,787.9473 556.9688,787.7441 Q556.7656,787.5566 556.6563,787.041 Q556.6094,786.6816 556.4219,786.4941 Q556.0938,786.1191 555.4844,785.9004 Q554.875,785.6816 554.25,785.6816 Q553.4844,785.6816 552.8438,786.0098 Q552.2188,786.3379 551.7188,787.0879 Q551.2344,787.8379 551.2344,788.8691 L551.2344,789.9629 Q551.2344,791.1973 552.125,792.0254 Q553.0156,792.8379 554.6094,792.8379 Q555.5469,792.8379 556.2031,792.5879 Q556.5938,792.4316 557.0156,791.9941 Q557.2813,791.7285 557.4219,791.6504 Q557.5781,791.5723 557.7813,791.5723 Q558.1094,791.5723 558.3594,791.8379 Q558.625,792.0879 558.625,792.4316 Q558.625,792.7754 558.2813,793.1816 Q557.7813,793.7598 556.9844,794.0879 Q555.9063,794.541 554.6094,794.541 Q553.0938,794.541 551.8906,793.916 Q550.9063,793.416 550.2188,792.3535 Q549.5313,791.2754 549.5313,789.9941 L549.5313,788.8379 Q549.5313,787.5098 550.1406,786.3691 Q550.7656,785.2129 551.8594,784.6035 Q552.9531,783.9785 554.1875,783.9785 Q554.9219,783.9785 555.5625,784.1504 Q556.2188,784.3066 556.7656,784.666 Z " fill="#000000"/><text fill="#000000" font-family="Segoe UI" font-size="12" font-style="italic" lengthAdjust="spacing" textLength="41.7422" x="566" y="784.4492">&#171;Entity&#187;</text><text fill="#0F172A" font-family="Segoe UI" font-size="14" lengthAdjust="spacing" textLength="35.8545" x="568.9438" y="802.5684">Order</text></g><!--class Cart--><g id="elem_Cart"><rect codeLine="49" fill="#FFFFFF" height="44.582" id="Cart" rx="2.5" ry="2.5" style="stroke:#64748B;stroke-width:0.5;" width="69.7422" x="539" y="686.5"/><ellipse cx="554" cy="708.791" fill="#ADD1B2" rx="11" ry="11" style="stroke:#181818;stroke-width:1;"/><path d="M556.7656,704.666 Q556.9219,704.4473 557.1094,704.3379 Q557.2969,704.2285 557.5156,704.2285 Q557.8906,704.2285 558.125,704.4941 Q558.3594,704.7441 558.3594,705.3535 L558.3594,706.8066 Q558.3594,707.416 558.125,707.6816 Q557.8906,707.9473 557.5156,707.9473 Q557.1719,707.9473 556.9688,707.7441 Q556.7656,707.5566 556.6563,707.041 Q556.6094,706.6816 556.4219,706.4941 Q556.0938,706.1191 555.4844,705.9004 Q554.875,705.6816 554.25,705.6816 Q553.4844,705.6816 552.8438,706.0098 Q552.2188,706.3379 551.7188,707.0879 Q551.2344,707.8379 551.2344,708.8691 L551.2344,709.9629 Q551.2344,711.1973 552.125,712.0254 Q553.0156,712.8379 554.6094,712.8379 Q555.5469,712.8379 556.2031,712.5879 Q556.5938,712.4316 557.0156,711.9941 Q557.2813,711.7285 557.4219,711.6504 Q557.5781,711.5723 557.7813,711.5723 Q558.1094,711.5723 558.3594,711.8379 Q558.625,712.0879 558.625,712.4316 Q558.625,712.7754 558.2813,713.1816 Q557.7813,713.7598 556.9844,714.0879 Q555.9063,714.541 554.6094,714.541 Q553.0938,714.541 551.8906,713.916 Q550.9063,713.416 550.2188,712.3535 Q549.5313,711.2754 549.5313,709.9941 L549.5313,708.8379 Q549.5313,707.5098 550.1406,706.3691 Q550.7656,705.2129 551.8594,704.6035 Q552.9531,703.9785 554.1875,703.9785 Q554.9219,703.9785 555.5625,704.1504 Q556.2188,704.3066 556.7656,704.666 Z " fill="#000000"/><text fill="#000000" font-family="Segoe UI" font-size="12" font-style="italic" lengthAdjust="spacing" textLength="41.7422" x="566" y="704.4492">&#171;Entity&#187;</text><text fill="#0F172A" font-family="Segoe UI" font-size="14" lengthAdjust="spacing" textLength="25.4023" x="574.1699" y="722.5684">Cart</text></g><!--class ProductReview--><g id="elem_ProductReview"><rect codeLine="50" fill="#FFFFFF" height="44.582" id="ProductReview" rx="2.5" ry="2.5" style="stroke:#64748B;stroke-width:0.5;" width="123.5195" x="512" y="606.5"/><ellipse cx="527" cy="628.791" fill="#ADD1B2" rx="11" ry="11" style="stroke:#181818;stroke-width:1;"/><path d="M529.7656,624.666 Q529.9219,624.4473 530.1094,624.3379 Q530.2969,624.2285 530.5156,624.2285 Q530.8906,624.2285 531.125,624.4941 Q531.3594,624.7441 531.3594,625.3535 L531.3594,626.8066 Q531.3594,627.416 531.125,627.6816 Q530.8906,627.9473 530.5156,627.9473 Q530.1719,627.9473 529.9688,627.7441 Q529.7656,627.5566 529.6563,627.041 Q529.6094,626.6816 529.4219,626.4941 Q529.0938,626.1191 528.4844,625.9004 Q527.875,625.6816 527.25,625.6816 Q526.4844,625.6816 525.8438,626.0098 Q525.2188,626.3379 524.7188,627.0879 Q524.2344,627.8379 524.2344,628.8691 L524.2344,629.9629 Q524.2344,631.1973 525.125,632.0254 Q526.0156,632.8379 527.6094,632.8379 Q528.5469,632.8379 529.2031,632.5879 Q529.5938,632.4316 530.0156,631.9941 Q530.2813,631.7285 530.4219,631.6504 Q530.5781,631.5723 530.7813,631.5723 Q531.1094,631.5723 531.3594,631.8379 Q531.625,632.0879 531.625,632.4316 Q531.625,632.7754 531.2813,633.1816 Q530.7813,633.7598 529.9844,634.0879 Q528.9063,634.541 527.6094,634.541 Q526.0938,634.541 524.8906,633.916 Q523.9063,633.416 523.2188,632.3535 Q522.5313,631.2754 522.5313,629.9941 L522.5313,628.8379 Q522.5313,627.5098 523.1406,626.3691 Q523.7656,625.2129 524.8594,624.6035 Q525.9531,623.9785 527.1875,623.9785 Q527.9219,623.9785 528.5625,624.1504 Q529.2188,624.3066 529.7656,624.666 Z " fill="#000000"/><text fill="#000000" font-family="Segoe UI" font-size="12" font-style="italic" lengthAdjust="spacing" textLength="41.7422" x="565.8887" y="624.4492">&#171;Entity&#187;</text><text fill="#0F172A" font-family="Segoe UI" font-size="14" lengthAdjust="spacing" textLength="91.5195" x="541" y="642.5684">ProductReview</text></g><!--class GymListingSubscription--><g id="elem_GymListingSubscription"><rect codeLine="57" fill="#FFFFFF" height="44.582" id="GymListingSubscription" rx="2.5" ry="2.5" style="stroke:#64748B;stroke-width:0.5;" width="177.4072" x="271" y="413.5"/><ellipse cx="286" cy="435.791" fill="#ADD1B2" rx="11" ry="11" style="stroke:#181818;stroke-width:1;"/><path d="M288.7656,431.666 Q288.9219,431.4473 289.1094,431.3379 Q289.2969,431.2285 289.5156,431.2285 Q289.8906,431.2285 290.125,431.4941 Q290.3594,431.7441 290.3594,432.3535 L290.3594,433.8066 Q290.3594,434.416 290.125,434.6816 Q289.8906,434.9473 289.5156,434.9473 Q289.1719,434.9473 288.9688,434.7441 Q288.7656,434.5566 288.6563,434.041 Q288.6094,433.6816 288.4219,433.4941 Q288.0938,433.1191 287.4844,432.9004 Q286.875,432.6816 286.25,432.6816 Q285.4844,432.6816 284.8438,433.0098 Q284.2188,433.3379 283.7188,434.0879 Q283.2344,434.8379 283.2344,435.8691 L283.2344,436.9629 Q283.2344,438.1973 284.125,439.0254 Q285.0156,439.8379 286.6094,439.8379 Q287.5469,439.8379 288.2031,439.5879 Q288.5938,439.4316 289.0156,438.9941 Q289.2813,438.7285 289.4219,438.6504 Q289.5781,438.5723 289.7813,438.5723 Q290.1094,438.5723 290.3594,438.8379 Q290.625,439.0879 290.625,439.4316 Q290.625,439.7754 290.2813,440.1816 Q289.7813,440.7598 288.9844,441.0879 Q287.9063,441.541 286.6094,441.541 Q285.0938,441.541 283.8906,440.916 Q282.9063,440.416 282.2188,439.3535 Q281.5313,438.2754 281.5313,436.9941 L281.5313,435.8379 Q281.5313,434.5098 282.1406,433.3691 Q282.7656,432.2129 283.8594,431.6035 Q284.9531,430.9785 286.1875,430.9785 Q286.9219,430.9785 287.5625,431.1504 Q288.2188,431.3066 288.7656,431.666 Z " fill="#000000"/><text fill="#000000" font-family="Segoe UI" font-size="12" font-style="italic" lengthAdjust="spacing" textLength="41.7422" x="351.8325" y="431.4492">&#171;Entity&#187;</text><text fill="#0F172A" font-family="Segoe UI" font-size="14" lengthAdjust="spacing" textLength="145.4072" x="300" y="449.5684">GymListingSubscription</text></g><!--class PaymentSession--><g id="elem_PaymentSession"><rect codeLine="58" fill="#FFFFFF" height="44.582" id="PaymentSession" rx="2.5" ry="2.5" style="stroke:#64748B;stroke-width:0.5;" width="131.9414" x="508" y="413.5"/><ellipse cx="523" cy="435.791" fill="#ADD1B2" rx="11" ry="11" style="stroke:#181818;stroke-width:1;"/><path d="M525.7656,431.666 Q525.9219,431.4473 526.1094,431.3379 Q526.2969,431.2285 526.5156,431.2285 Q526.8906,431.2285 527.125,431.4941 Q527.3594,431.7441 527.3594,432.3535 L527.3594,433.8066 Q527.3594,434.416 527.125,434.6816 Q526.8906,434.9473 526.5156,434.9473 Q526.1719,434.9473 525.9688,434.7441 Q525.7656,434.5566 525.6563,434.041 Q525.6094,433.6816 525.4219,433.4941 Q525.0938,433.1191 524.4844,432.9004 Q523.875,432.6816 523.25,432.6816 Q522.4844,432.6816 521.8438,433.0098 Q521.2188,433.3379 520.7188,434.0879 Q520.2344,434.8379 520.2344,435.8691 L520.2344,436.9629 Q520.2344,438.1973 521.125,439.0254 Q522.0156,439.8379 523.6094,439.8379 Q524.5469,439.8379 525.2031,439.5879 Q525.5938,439.4316 526.0156,438.9941 Q526.2813,438.7285 526.4219,438.6504 Q526.5781,438.5723 526.7813,438.5723 Q527.1094,438.5723 527.3594,438.8379 Q527.625,439.0879 527.625,439.4316 Q527.625,439.7754 527.2813,440.1816 Q526.7813,440.7598 525.9844,441.0879 Q524.9063,441.541 523.6094,441.541 Q522.0938,441.541 520.8906,440.916 Q519.9063,440.416 519.2188,439.3535 Q518.5313,438.2754 518.5313,436.9941 L518.5313,435.8379 Q518.5313,434.5098 519.1406,433.3691 Q519.7656,432.2129 520.8594,431.6035 Q521.9531,430.9785 523.1875,430.9785 Q523.9219,430.9785 524.5625,431.1504 Q525.2188,431.3066 525.7656,431.666 Z " fill="#000000"/><text fill="#000000" font-family="Segoe UI" font-size="12" font-style="italic" lengthAdjust="spacing" textLength="41.7422" x="566.0996" y="431.4492">&#171;Entity&#187;</text><text fill="#0F172A" font-family="Segoe UI" font-size="14" lengthAdjust="spacing" textLength="99.9414" x="537" y="449.5684">PaymentSession</text></g><!--class Revenue--><g id="elem_Revenue"><rect codeLine="59" fill="#FFFFFF" height="44.582" id="Revenue" rx="2.5" ry="2.5" style="stroke:#64748B;stroke-width:0.5;" width="84.8896" x="700" y="413.5"/><ellipse cx="715" cy="435.791" fill="#ADD1B2" rx="11" ry="11" style="stroke:#181818;stroke-width:1;"/><path d="M717.7656,431.666 Q717.9219,431.4473 718.1094,431.3379 Q718.2969,431.2285 718.5156,431.2285 Q718.8906,431.2285 719.125,431.4941 Q719.3594,431.7441 719.3594,432.3535 L719.3594,433.8066 Q719.3594,434.416 719.125,434.6816 Q718.8906,434.9473 718.5156,434.9473 Q718.1719,434.9473 717.9688,434.7441 Q717.7656,434.5566 717.6563,434.041 Q717.6094,433.6816 717.4219,433.4941 Q717.0938,433.1191 716.4844,432.9004 Q715.875,432.6816 715.25,432.6816 Q714.4844,432.6816 713.8438,433.0098 Q713.2188,433.3379 712.7188,434.0879 Q712.2344,434.8379 712.2344,435.8691 L712.2344,436.9629 Q712.2344,438.1973 713.125,439.0254 Q714.0156,439.8379 715.6094,439.8379 Q716.5469,439.8379 717.2031,439.5879 Q717.5938,439.4316 718.0156,438.9941 Q718.2813,438.7285 718.4219,438.6504 Q718.5781,438.5723 718.7813,438.5723 Q719.1094,438.5723 719.3594,438.8379 Q719.625,439.0879 719.625,439.4316 Q719.625,439.7754 719.2813,440.1816 Q718.7813,440.7598 717.9844,441.0879 Q716.9063,441.541 715.6094,441.541 Q714.0938,441.541 712.8906,440.916 Q711.9063,440.416 711.2188,439.3535 Q710.5313,438.2754 710.5313,436.9941 L710.5313,435.8379 Q710.5313,434.5098 711.1406,433.3691 Q711.7656,432.2129 712.8594,431.6035 Q713.9531,430.9785 715.1875,430.9785 Q715.9219,430.9785 716.5625,431.1504 Q717.2188,431.3066 717.7656,431.666 Z " fill="#000000"/><text fill="#000000" font-family="Segoe UI" font-size="12" font-style="italic" lengthAdjust="spacing" textLength="41.7422" x="734.5737" y="431.4492">&#171;Entity&#187;</text><text fill="#0F172A" font-family="Segoe UI" font-size="14" lengthAdjust="spacing" textLength="52.8896" x="729" y="449.5684">Revenue</text></g><!--link Gym to GymMembership--><g id="link_Gym_GymMembership"><path codeLine="33" d="M142.22,181.5 C197.64,181.5 299,181.5 299,181.5 C299,181.5 299,204.18 299,225.46 " fill="none" id="Gym-to-GymMembership" style="stroke:#181818;stroke-width:1;"/><polygon fill="#181818" points="299,231.46,303,222.46,299,226.46,295,222.46,299,231.46" style="stroke:#181818;stroke-width:1;"/></g><!--link Gym to GymReview--><g id="link_Gym_GymReview"><path codeLine="34" d="M142.11,166.5 C184.93,166.5 251.7,166.5 301.14,166.5 " fill="none" id="Gym-to-GymReview" style="stroke:#181818;stroke-width:1;"/><polygon fill="#181818" points="307.14,166.5,298.14,162.5,302.14,166.5,298.14,170.5,307.14,166.5" style="stroke:#181818;stroke-width:1;"/></g><!--link Gym to Gallery--><g id="link_Gym_Gallery"><path codeLine="35" d="M107,151.29 C107,127.64 107,94 107,94 C107,94 246.01,94 316.24,94 " fill="none" id="Gym-to-Gallery" style="stroke:#181818;stroke-width:1;"/><polygon fill="#181818" points="322.24,94,313.24,90,317.24,94,313.24,98,322.24,94" style="stroke:#181818;stroke-width:1;"/></g><!--link TrainerAssignment to TrainerProgress--><g id="link_TrainerAssignment_TrainerProgress"><path codeLine="42" d="M433.01,1011 C477.62,1011 526,1011 526,1011 C526,1011 526,1013.21 526,1022.2 " fill="none" id="TrainerAssignment-to-TrainerProgress" style="stroke:#181818;stroke-width:1;"/><polygon fill="#181818" points="526,1028.2,530,1019.2,526,1023.2,522,1019.2,526,1028.2" style="stroke:#181818;stroke-width:1;"/></g><!--link TrainerAssignment to Booking--><g id="link_TrainerAssignment_Booking"><path codeLine="43" d="M433.02,988.5 C466.25,988.5 498.29,988.5 526.47,988.5 " fill="none" id="TrainerAssignment-to-Booking" style="stroke:#181818;stroke-width:1;"/><polygon fill="#181818" points="532.47,988.5,523.47,984.5,527.47,988.5,523.47,992.5,532.47,988.5" style="stroke:#181818;stroke-width:1;"/></g><!--link Product to ProductReview--><g id="link_Product_ProductReview"><path codeLine="51" d="M399.75,701.5 C447,701.5 519,701.5 519,701.5 C519,701.5 519,678.82 519,657.54 " fill="none" id="Product-to-ProductReview" style="stroke:#181818;stroke-width:1;"/><polygon fill="#181818" points="519,651.54,515,660.54,519,656.54,523,660.54,519,651.54" style="stroke:#181818;stroke-width:1;"/></g><!--link Product to Cart--><g id="link_Product_Cart"><path codeLine="52" d="M399.59,716.5 C439.61,716.5 494.49,716.5 532.72,716.5 " fill="none" id="Product-to-Cart" style="stroke:#181818;stroke-width:1;"/><polygon fill="#181818" points="538.72,716.5,529.72,712.5,533.72,716.5,529.72,720.5,538.72,716.5" style="stroke:#181818;stroke-width:1;"/></g><!--link Product to Order--><g id="link_Product_Order"><path codeLine="53" d="M380,731.59 C380,751.72 380,778 380,778 C380,778 476.96,778 532.87,778 " fill="none" id="Product-to-Order" style="stroke:#181818;stroke-width:1;"/><polygon fill="#181818" points="538.87,778,529.87,774,533.87,778,529.87,782,538.87,778" style="stroke:#181818;stroke-width:1;"/></g><!--link GymListingSubscription to PaymentSession--><g id="link_GymListingSubscription_PaymentSession"><path codeLine="60" d="M448.29,436 C468.23,436 483.05,436 501.87,436 " fill="none" id="GymListingSubscription-to-PaymentSession" style="stroke:#181818;stroke-width:1;"/><polygon fill="#181818" points="507.87,436,498.87,432,502.87,436,498.87,440,507.87,436" style="stroke:#181818;stroke-width:1;"/></g><!--link PaymentSession to Revenue--><g id="link_PaymentSession_Revenue"><path codeLine="61" d="M640.11,436 C660.21,436 675.76,436 693.87,436 " fill="none" id="PaymentSession-to-Revenue" style="stroke:#181818;stroke-width:1;"/><polygon fill="#181818" points="699.87,436,690.87,432,694.87,436,690.87,440,699.87,436" style="stroke:#181818;stroke-width:1;"/></g><!--link ASC to IAC--><!--link IAC to GMC--><!--link ASC to TEC--><!--link IAC to MPC--><!--link GMC to MRC--><!--link TEC to MPC--><!--link MPC to MRC--><!--SRC=[TLJ1Rjim3BtxAuJk7A1PqxM78e3ZnKM0PIlYzjJjeDgC8qIM34bkvmtvzv6skrgsavD3Fhx79ugIi7VCQMP4Vd0i4mPI9xGAx56eaXjUC7lWcNuJAcTxBYtqCYLFZpo7nDKI61LobSi-G0e5hYw1QUCEkfV8OCyhwMAjt7TU04iWry2UDcDozZTWR8NVkT6LoY8jjM6VujiuZ2FAQ9E1wQ9NLulvzJL6YRUBNSRpcyyXndPjkL5WsFmoEFMaKicjFIFK_8P2NnOtYzlLfD0fE8WC61Ibgra1nGiO6mJlPYx2h11AM6SudJBZAcD9LPPuFZzLX6JmsrqmRbcOH4r3RMj9RHqK2JX7OxYxMoidNBrS_WTGAK_T5gmbcHxYr1FVPD246zamJH7jgsx2lkgJnQCwGtLV5-ohiAb-1TFoRLkl1r7wdFVRFYVLJVIFuO_wCu0Tl0fucqnoAQaDBqLAizdIf_RZBMC_rX9vJXyD5tHdrYh7_mMUeE_lSTttrw53QqMk23pLRmTwC3etE8Cfo4hhusZMOt9gUi1s5jTHUkQst1p1bPAdq0mnhkHUI3bskNtekqIjh4edlVsWDPcyejnC5dHSKzDzbw7kFTWWHzI3KDE6RrNZMoJ-VEmTKe6gOE1pDxYjtt1PyTIIwiMcHfHDzPGBNjEX9JY0CuXERdH9fmGQmnuZsVCb2DDnaazwC6RF-FRWZlzg7dFCupu7jDEZ12wbNu4llAAxj1uKT74SVq2BF8hlee0MO2H01NHdnebTz0y0]--></g></svg>