<svg xmlns="http://www.w3.org/2000/svg" xmlns:xlink="http://www.w3.org/1999/xlink" contentStyleType="text/css" height="589px" preserveAspectRatio="none" style="width:1231px;height:589px;background:#FFFFFF;" version="1.1" viewBox="0 0 1231 589" width="1231px" zoomAndPan="magnify"><defs/><g><!--cluster Membership View--><g id="cluster_Membership View"><path d="M16.5,4 L136.2881,4 A3.75,3.75 0 0 1 138.7881,6.5 L145.7881,28.6211 L506.5,28.6211 A2.5,2.5 0 0 1 509,31.1211 L509,370.5 A2.5,2.5 0 0 1 506.5,373 L16.5,373 A2.5,2.5 0 0 1 14,370.5 L14,6.5 A2.5,2.5 0 0 1 16.5,4 " fill="none" style="stroke:#000000;stroke-width:1.5;"/><line style="stroke:#000000;stroke-width:1.5;" x1="14" x2="145.7881" y1="28.6211" y2="28.6211"/><text fill="#000000" font-family="Segoe UI" font-size="14" font-weight="bold" lengthAdjust="spacing" textLength="118.7881" x="18" y="21.1074">Membership View</text></g><!--cluster Marketplace View--><g id="cluster_Marketplace View"><path d="M902.5,143 L1021.2559,143 A3.75,3.75 0 0 1 1023.7559,145.5 L1030.7559,167.6211 L1221.5,167.6211 A2.5,2.5 0 0 1 1224,170.1211 L1224,481.5 A2.5,2.5 0 0 1 1221.5,484 L902.5,484 A2.5,2.5 0 0 1 900,481.5 L900,145.5 A2.5,2.5 0 0 1 902.5,143 " fill="none" style="stroke:#000000;stroke-width:1.5;"/><line style="stroke:#000000;stroke-width:1.5;" x1="900" x2="1030.7559" y1="167.6211" y2="167.6211"/><text fill="#000000" font-family="Segoe UI" font-size="14" font-weight="bold" lengthAdjust="spacing" textLength="117.7559" x="904" y="160.1074">Marketplace View</text></g><!--cluster Monetization View--><g id="cluster_Monetization View"><path d="M519.5,282 L644.5381,282 A3.75,3.75 0 0 1 647.0381,284.5 L654.0381,306.6211 L889.5,306.6211 A2.5,2.5 0 0 1 892,309.1211 L892,481.5 A2.5,2.5 0 0 1 889.5,484 L519.5,484 A2.5,2.5 0 0 1 517,481.5 L517,284.5 A2.5,2.5 0 0 1 519.5,282 " fill="none" style="stroke:#000000;stroke-width:1.5;"/><line style="stroke:#000000;stroke-width:1.5;" x1="517" x2="654.0381" y1="306.6211" y2="306.6211"/><text fill="#000000" font-family="Segoe UI" font-size="14" font-weight="bold" lengthAdjust="spacing" textLength="124.0381" x="521" y="299.1074">Monetization View</text></g><!--class OwnerUser--><g id="elem_OwnerUser"><rect codeLine="16" fill="#FFFFFF" height="63.2031" id="OwnerUser" rx="2.5" ry="2.5" style="stroke:#334155;stroke-width:0.5;" width="137.8682" x="363" y="33"/><ellipse cx="378" cy="64.6016" fill="#ADD1B2" rx="11" ry="11" style="stroke:#181818;stroke-width:1;"/><path d="M380.7656,60.4766 Q380.9219,60.2578 381.1094,60.1484 Q381.2969,60.0391 381.5156,60.0391 Q381.8906,60.0391 382.125,60.3047 Q382.3594,60.5547 382.3594,61.1641 L382.3594,62.6172 Q382.3594,63.2266 382.125,63.4922 Q381.8906,63.7578 381.5156,63.7578 Q381.1719,63.7578 380.9688,63.5547 Q380.7656,63.3672 380.6563,62.8516 Q380.6094,62.4922 380.4219,62.3047 Q380.0938,61.9297 379.4844,61.7109 Q378.875,61.4922 378.25,61.4922 Q377.4844,61.4922 376.8438,61.8203 Q376.2188,62.1484 375.7188,62.8984 Q375.2344,63.6484 375.2344,64.6797 L375.2344,65.7734 Q375.2344,67.0078 376.125,67.8359 Q377.0156,68.6484 378.6094,68.6484 Q379.5469,68.6484 380.2031,68.3984 Q380.5938,68.2422 381.0156,67.8047 Q381.2813,67.5391 381.4219,67.4609 Q381.5781,67.3828 381.7813,67.3828 Q382.1094,67.3828 382.3594,67.6484 Q382.625,67.8984 382.625,68.2422 Q382.625,68.5859 382.2813,68.9922 Q381.7813,69.5703 380.9844,69.8984 Q379.9063,70.3516 378.6094,70.3516 Q377.0938,70.3516 375.8906,69.7266 Q374.9063,69.2266 374.2188,68.1641 Q373.5313,67.0859 373.5313,65.8047 L373.5313,64.6484 Q373.5313,63.3203 374.1406,62.1797 Q374.7656,61.0234 375.8594,60.4141 Q376.9531,59.7891 378.1875,59.7891 Q378.9219,59.7891 379.5625,59.9609 Q380.2188,60.1172 380.7656,60.4766 Z " fill="#000000"/><text fill="#000000" font-family="Segoe UI" font-size="12" font-style="italic" lengthAdjust="spacing" textLength="41.7422" x="424.063" y="50.9492">&#171;Entity&#187;</text><text fill="#0F172A" font-family="Segoe UI" font-size="14" lengthAdjust="spacing" textLength="27.7471" x="431.0605" y="69.0684">User</text><text fill="#0F172A" font-family="Segoe UI" font-size="14" lengthAdjust="spacing" textLength="105.8682" x="392" y="87.6895">(owner role view)</text></g><!--class TraineeUser--><g id="elem_TraineeUser"><rect codeLine="17" fill="#FFFFFF" height="63.2031" id="TraineeUser" rx="2.5" ry="2.5" style="stroke:#334155;stroke-width:0.5;" width="142.127" x="22" y="172"/><ellipse cx="37" cy="203.6016" fill="#ADD1B2" rx="11" ry="11" style="stroke:#181818;stroke-width:1;"/><path d="M39.7656,199.4766 Q39.9219,199.2578 40.1094,199.1484 Q40.2969,199.0391 40.5156,199.0391 Q40.8906,199.0391 41.125,199.3047 Q41.3594,199.5547 41.3594,200.1641 L41.3594,201.6172 Q41.3594,202.2266 41.125,202.4922 Q40.8906,202.7578 40.5156,202.7578 Q40.1719,202.7578 39.9688,202.5547 Q39.7656,202.3672 39.6563,201.8516 Q39.6094,201.4922 39.4219,201.3047 Q39.0938,200.9297 38.4844,200.7109 Q37.875,200.4922 37.25,200.4922 Q36.4844,200.4922 35.8438,200.8203 Q35.2188,201.1484 34.7188,201.8984 Q34.2344,202.6484 34.2344,203.6797 L34.2344,204.7734 Q34.2344,206.0078 35.125,206.8359 Q36.0156,207.6484 37.6094,207.6484 Q38.5469,207.6484 39.2031,207.3984 Q39.5938,207.2422 40.0156,206.8047 Q40.2813,206.5391 40.4219,206.4609 Q40.5781,206.3828 40.7813,206.3828 Q41.1094,206.3828 41.3594,206.6484 Q41.625,206.8984 41.625,207.2422 Q41.625,207.5859 41.2813,207.9922 Q40.7813,208.5703 39.9844,208.8984 Q38.9063,209.3516 37.6094,209.3516 Q36.0938,209.3516 34.8906,208.7266 Q33.9063,208.2266 33.2188,207.1641 Q32.5313,206.0859 32.5313,204.8047 L32.5313,203.6484 Q32.5313,202.3203 33.1406,201.1797 Q33.7656,200.0234 34.8594,199.4141 Q35.9531,198.7891 37.1875,198.7891 Q37.9219,198.7891 38.5625,198.9609 Q39.2188,199.1172 39.7656,199.4766 Z " fill="#000000"/><text fill="#000000" font-family="Segoe UI" font-size="12" font-style="italic" lengthAdjust="spacing" textLength="41.7422" x="85.1924" y="189.9492">&#171;Entity&#187;</text><text fill="#0F172A" font-family="Segoe UI" font-size="14" lengthAdjust="spacing" textLength="27.7471" x="92.1899" y="208.0684">User</text><text fill="#0F172A" font-family="Segoe UI" font-size="14" lengthAdjust="spacing" textLength="110.127" x="51" y="226.6895">(trainee role view)</text></g><!--class TrainerUser--><g id="elem_TrainerUser"><rect codeLine="18" fill="#FFFFFF" height="63.2031" id="TrainerUser" rx="2.5" ry="2.5" style="stroke:#334155;stroke-width:0.5;" width="139.6729" x="182" y="172"/><ellipse cx="197" cy="203.6016" fill="#ADD1B2" rx="11" ry="11" style="stroke:#181818;stroke-width:1;"/><path d="M199.7656,199.4766 Q199.9219,199.2578 200.1094,199.1484 Q200.2969,199.0391 200.5156,199.0391 Q200.8906,199.0391 201.125,199.3047 Q201.3594,199.5547 201.3594,200.1641 L201.3594,201.6172 Q201.3594,202.2266 201.125,202.4922 Q200.8906,202.7578 200.5156,202.7578 Q200.1719,202.7578 199.9688,202.5547 Q199.7656,202.3672 199.6563,201.8516 Q199.6094,201.4922 199.4219,201.3047 Q199.0938,200.9297 198.4844,200.7109 Q197.875,200.4922 197.25,200.4922 Q196.4844,200.4922 195.8438,200.8203 Q195.2188,201.1484 194.7188,201.8984 Q194.2344,202.6484 194.2344,203.6797 L194.2344,204.7734 Q194.2344,206.0078 195.125,206.8359 Q196.0156,207.6484 197.6094,207.6484 Q198.5469,207.6484 199.2031,207.3984 Q199.5938,207.2422 200.0156,206.8047 Q200.2813,206.5391 200.4219,206.4609 Q200.5781,206.3828 200.7813,206.3828 Q201.1094,206.3828 201.3594,206.6484 Q201.625,206.8984 201.625,207.2422 Q201.625,207.5859 201.2813,207.9922 Q200.7813,208.5703 199.9844,208.8984 Q198.9063,209.3516 197.6094,209.3516 Q196.0938,209.3516 194.8906,208.7266 Q193.9063,208.2266 193.2188,207.1641 Q192.5313,206.0859 192.5313,204.8047 L192.5313,203.6484 Q192.5313,202.3203 193.1406,201.1797 Q193.7656,200.0234 194.8594,199.4141 Q195.9531,198.7891 197.1875,198.7891 Q197.9219,198.7891 198.5625,198.9609 Q199.2188,199.1172 199.7656,199.4766 Z " fill="#000000"/><text fill="#000000" font-family="Segoe UI" font-size="12" font-style="italic" lengthAdjust="spacing" textLength="41.7422" x="243.9653" y="189.9492">&#171;Entity&#187;</text><text fill="#0F172A" font-family="Segoe UI" font-size="14" lengthAdjust="spacing" textLength="27.7471" x="250.9629" y="208.0684">User</text><text fill="#0F172A" font-family="Segoe UI" font-size="14" lengthAdjust="spacing" textLength="107.6729" x="211" y="226.6895">(trainer role view)</text></g><!--class Gym--><g id="elem_Gym"><rect codeLine="19" fill="#FFFFFF" height="44.582" id="Gym" rx="2.5" ry="2.5" style="stroke:#334155;stroke-width:0.5;" width="69.7422" x="397" y="181"/><ellipse cx="412" cy="203.291" fill="#ADD1B2" rx="11" ry="11" style="stroke:#181818;stroke-width:1;"/><path d="M414.7656,199.166 Q414.9219,198.9473 415.1094,198.8379 Q415.2969,198.7285 415.5156,198.7285 Q415.8906,198.7285 416.125,198.9941 Q416.3594,199.2441 416.3594,199.8535 L416.3594,201.3066 Q416.3594,201.916 416.125,202.1816 Q415.8906,202.4473 415.5156,202.4473 Q415.1719,202.4473 414.9688,202.2441 Q414.7656,202.0566 414.6563,201.541 Q414.6094,201.1816 414.4219,200.9941 Q414.0938,200.6191 413.4844,200.4004 Q412.875,200.1816 412.25,200.1816 Q411.4844,200.1816 410.8438,200.5098 Q410.2188,200.8379 409.7188,201.5879 Q409.2344,202.3379 409.2344,203.3691 L409.2344,204.4629 Q409.2344,205.6973 410.125,206.5254 Q411.0156,207.3379 412.6094,207.3379 Q413.5469,207.3379 414.2031,207.0879 Q414.5938,206.9316 415.0156,206.4941 Q415.2813,206.2285 415.4219,206.1504 Q415.5781,206.0723 415.7813,206.0723 Q416.1094,206.0723 416.3594,206.3379 Q416.625,206.5879 416.625,206.9316 Q416.625,207.2754 416.2813,207.6816 Q415.7813,208.2598 414.9844,208.5879 Q413.9063,209.041 412.6094,209.041 Q411.0938,209.041 409.8906,208.416 Q408.9063,207.916 408.2188,206.8535 Q407.5313,205.7754 407.5313,204.4941 L407.5313,203.3379 Q407.5313,202.0098 408.1406,200.8691 Q408.7656,199.7129 409.8594,199.1035 Q410.9531,198.4785 412.1875,198.4785 Q412.9219,198.4785 413.5625,198.6504 Q414.2188,198.8066 414.7656,199.166 Z " fill="#000000"/><text fill="#000000" font-family="Segoe UI" font-size="12" font-style="italic" lengthAdjust="spacing" textLength="41.7422" x="424" y="198.9492">&#171;Entity&#187;</text><text fill="#0F172A" font-family="Segoe UI" font-size="14" lengthAdjust="spacing" textLength="28.4375" x="430.6523" y="217.0684">Gym</text></g><!--class GymMembership--><g id="elem_GymMembership"><rect codeLine="20" fill="#FFFFFF" height="44.582" id="GymMembership" rx="2.5" ry="2.5" style="stroke:#334155;stroke-width:0.5;" width="138.292" x="182" y="320"/><ellipse cx="197" cy="342.291" fill="#ADD1B2" rx="11" ry="11" style="stroke:#181818;stroke-width:1;"/><path d="M199.7656,338.166 Q199.9219,337.9473 200.1094,337.8379 Q200.2969,337.7285 200.5156,337.7285 Q200.8906,337.7285 201.125,337.9941 Q201.3594,338.2441 201.3594,338.8535 L201.3594,340.3066 Q201.3594,340.916 201.125,341.1816 Q200.8906,341.4473 200.5156,341.4473 Q200.1719,341.4473 199.9688,341.2441 Q199.7656,341.0566 199.6563,340.541 Q199.6094,340.1816 199.4219,339.9941 Q199.0938,339.6191 198.4844,339.4004 Q197.875,339.1816 197.25,339.1816 Q196.4844,339.1816 195.8438,339.5098 Q195.2188,339.8379 194.7188,340.5879 Q194.2344,341.3379 194.2344,342.3691 L194.2344,343.4629 Q194.2344,344.6973 195.125,345.5254 Q196.0156,346.3379 197.6094,346.3379 Q198.5469,346.3379 199.2031,346.0879 Q199.5938,345.9316 200.0156,345.4941 Q200.2813,345.2285 200.4219,345.1504 Q200.5781,345.0723 200.7813,345.0723 Q201.1094,345.0723 201.3594,345.3379 Q201.625,345.5879 201.625,345.9316 Q201.625,346.2754 201.2813,346.6816 Q200.7813,347.2598 199.9844,347.5879 Q198.9063,348.041 197.6094,348.041 Q196.0938,348.041 194.8906,347.416 Q193.9063,346.916 193.2188,345.8535 Q192.5313,344.7754 192.5313,343.4941 L192.5313,342.3379 Q192.5313,341.0098 193.1406,339.8691 Q193.7656,338.7129 194.8594,338.1035 Q195.9531,337.4785 197.1875,337.4785 Q197.9219,337.4785 198.5625,337.6504 Q199.2188,337.8066 199.7656,338.166 Z " fill="#000000"/><text fill="#000000" font-family="Segoe UI" font-size="12" font-style="italic" lengthAdjust="spacing" textLength="41.7422" x="243.2749" y="337.9492">&#171;Entity&#187;</text><text fill="#0F172A" font-family="Segoe UI" font-size="14" lengthAdjust="spacing" textLength="106.292" x="211" y="356.0684">GymMembership</text></g><!--class TrainerAssignment--><g id="elem_TrainerAssignment"><rect codeLine="21" fill="#FFFFFF" height="44.582" id="TrainerAssignment" rx="2.5" ry="2.5" style="stroke:#334155;stroke-width:0.5;" width="147.3428" x="345.5" y="320"/><ellipse cx="360.5" cy="342.291" fill="#ADD1B2" rx="11" ry="11" style="stroke:#181818;stroke-width:1;"/><path d="M363.2656,338.166 Q363.4219,337.9473 363.6094,337.8379 Q363.7969,337.7285 364.0156,337.7285 Q364.3906,337.7285 364.625,337.9941 Q364.8594,338.2441 364.8594,338.8535 L364.8594,340.3066 Q364.8594,340.916 364.625,341.1816 Q364.3906,341.4473 364.0156,341.4473 Q363.6719,341.4473 363.4688,341.2441 Q363.2656,341.0566 363.1563,340.541 Q363.1094,340.1816 362.9219,339.9941 Q362.5938,339.6191 361.9844,339.4004 Q361.375,339.1816 360.75,339.1816 Q359.9844,339.1816 359.3438,339.5098 Q358.7188,339.8379 358.2188,340.5879 Q357.7344,341.3379 357.7344,342.3691 L357.7344,343.4629 Q357.7344,344.6973 358.625,345.5254 Q359.5156,346.3379 361.1094,346.3379 Q362.0469,346.3379 362.7031,346.0879 Q363.0938,345.9316 363.5156,345.4941 Q363.7813,345.2285 363.9219,345.1504 Q364.0781,345.0723 364.2813,345.0723 Q364.6094,345.0723 364.8594,345.3379 Q365.125,345.5879 365.125,345.9316 Q365.125,346.2754 364.7813,346.6816 Q364.2813,347.2598 363.4844,347.5879 Q362.4063,348.041 361.1094,348.041 Q359.5938,348.041 358.3906,347.416 Q357.4063,346.916 356.7188,345.8535 Q356.0313,344.7754 356.0313,343.4941 L356.0313,342.3379 Q356.0313,341.0098 356.6406,339.8691 Q357.2656,338.7129 358.3594,338.1035 Q359.4531,337.4785 360.6875,337.4785 Q361.4219,337.4785 362.0625,337.6504 Q362.7188,337.8066 363.2656,338.166 Z " fill="#000000"/><text fill="#000000" font-family="Segoe UI" font-size="12" font-style="italic" lengthAdjust="spacing" textLength="41.7422" x="411.3003" y="337.9492">&#171;Entity&#187;</text><text fill="#0F172A" font-family="Segoe UI" font-size="14" lengthAdjust="spacing" textLength="115.3428" x="374.5" y="356.0684">TrainerAssignment</text></g><!--class TrainerProgress--><g id="elem_TrainerProgress"><rect codeLine="22" fill="#FFFFFF" height="44.582" id="TrainerProgress" rx="2.5" ry="2.5" style="stroke:#334155;stroke-width:0.5;" width="128.0518" x="36" y="320"/><ellipse cx="51" cy="342.291" fill="#ADD1B2" rx="11" ry="11" style="stroke:#181818;stroke-width:1;"/><path d="M53.7656,338.166 Q53.9219,337.9473 54.1094,337.8379 Q54.2969,337.7285 54.5156,337.7285 Q54.8906,337.7285 55.125,337.9941 Q55.3594,338.2441 55.3594,338.8535 L55.3594,340.3066 Q55.3594,340.916 55.125,341.1816 Q54.8906,341.4473 54.5156,341.4473 Q54.1719,341.4473 53.9688,341.2441 Q53.7656,341.0566 53.6563,340.541 Q53.6094,340.1816 53.4219,339.9941 Q53.0938,339.6191 52.4844,339.4004 Q51.875,339.1816 51.25,339.1816 Q50.4844,339.1816 49.8438,339.5098 Q49.2188,339.8379 48.7188,340.5879 Q48.2344,341.3379 48.2344,342.3691 L48.2344,343.4629 Q48.2344,344.6973 49.125,345.5254 Q50.0156,346.3379 51.6094,346.3379 Q52.5469,346.3379 53.2031,346.0879 Q53.5938,345.9316 54.0156,345.4941 Q54.2813,345.2285 54.4219,345.1504 Q54.5781,345.0723 54.7813,345.0723 Q55.1094,345.0723 55.3594,345.3379 Q55.625,345.5879 55.625,345.9316 Q55.625,346.2754 55.2813,346.6816 Q54.7813,347.2598 53.9844,347.5879 Q52.9063,348.041 51.6094,348.041 Q50.0938,348.041 48.8906,347.416 Q47.9063,346.916 47.2188,345.8535 Q46.5313,344.7754 46.5313,343.4941 L46.5313,342.3379 Q46.5313,341.0098 47.1406,339.8691 Q47.7656,338.7129 48.8594,338.1035 Q49.9531,337.4785 51.1875,337.4785 Q51.9219,337.4785 52.5625,337.6504 Q53.2188,337.8066 53.7656,338.166 Z " fill="#000000"/><text fill="#000000" font-family="Segoe UI" font-size="12" font-style="italic" lengthAdjust="spacing" textLength="41.7422" x="92.1548" y="337.9492">&#171;Entity&#187;</text><text fill="#0F172A" font-family="Segoe UI" font-size="14" lengthAdjust="spacing" textLength="96.0518" x="65" y="356.0684">TrainerProgress</text></g><!--class CustomerUser--><g id="elem_CustomerUser"><rect codeLine="26" fill="#FFFFFF" height="63.2031" id="CustomerUser" rx="2.5" ry="2.5" style="stroke:#334155;stroke-width:0.5;" width="156.9609" x="908.5" y="172"/><ellipse cx="923.5" cy="203.6016" fill="#ADD1B2" rx="11" ry="11" style="stroke:#181818;stroke-width:1;"/><path d="M926.2656,199.4766 Q926.4219,199.2578 926.6094,199.1484 Q926.7969,199.0391 927.0156,199.0391 Q927.3906,199.0391 927.625,199.3047 Q927.8594,199.5547 927.8594,200.1641 L927.8594,201.6172 Q927.8594,202.2266 927.625,202.4922 Q927.3906,202.7578 927.0156,202.7578 Q926.6719,202.7578 926.4688,202.5547 Q926.2656,202.3672 926.1563,201.8516 Q926.1094,201.4922 925.9219,201.3047 Q925.5938,200.9297 924.9844,200.7109 Q924.375,200.4922 923.75,200.4922 Q922.9844,200.4922 922.3438,200.8203 Q921.7188,201.1484 921.2188,201.8984 Q920.7344,202.6484 920.7344,203.6797 L920.7344,204.7734 Q920.7344,206.0078 921.625,206.8359 Q922.5156,207.6484 924.1094,207.6484 Q925.0469,207.6484 925.7031,207.3984 Q926.0938,207.2422 926.5156,206.8047 Q926.7813,206.5391 926.9219,206.4609 Q927.0781,206.3828 927.2813,206.3828 Q927.6094,206.3828 927.8594,206.6484 Q928.125,206.8984 928.125,207.2422 Q928.125,207.5859 927.7813,207.9922 Q927.2813,208.5703 926.4844,208.8984 Q925.4063,209.3516 924.1094,209.3516 Q922.5938,209.3516 921.3906,208.7266 Q920.4063,208.2266 919.7188,207.1641 Q919.0313,206.0859 919.0313,204.8047 L919.0313,203.6484 Q919.0313,202.3203 919.6406,201.1797 Q920.2656,200.0234 921.3594,199.4141 Q922.4531,198.7891 923.6875,198.7891 Q924.4219,198.7891 925.0625,198.9609 Q925.7188,199.1172 926.2656,199.4766 Z " fill="#000000"/><text fill="#000000" font-family="Segoe UI" font-size="12" font-style="italic" lengthAdjust="spacing" textLength="41.7422" x="979.1094" y="189.9492">&#171;Entity&#187;</text><text fill="#0F172A" font-family="Segoe UI" font-size="14" lengthAdjust="spacing" textLength="27.7471" x="986.1069" y="208.0684">User</text><text fill="#0F172A" font-family="Segoe UI" font-size="14" lengthAdjust="spacing" textLength="124.9609" x="937.5" y="226.6895">(customer role view)</text></g><!--class SellerUser--><g id="elem_SellerUser"><rect codeLine="27" fill="#FFFFFF" height="63.2031" id="SellerUser" rx="2.5" ry="2.5" style="stroke:#334155;stroke-width:0.5;" width="131.668" x="1084" y="172"/><ellipse cx="1099" cy="203.6016" fill="#ADD1B2" rx="11" ry="11" style="stroke:#181818;stroke-width:1;"/><path d="M1101.7656,199.4766 Q1101.9219,199.2578 1102.1094,199.1484 Q1102.2969,199.0391 1102.5156,199.0391 Q1102.8906,199.0391 1103.125,199.3047 Q1103.3594,199.5547 1103.3594,200.1641 L1103.3594,201.6172 Q1103.3594,202.2266 1103.125,202.4922 Q1102.8906,202.7578 1102.5156,202.7578 Q1102.1719,202.7578 1101.9688,202.5547 Q1101.7656,202.3672 1101.6563,201.8516 Q1101.6094,201.4922 1101.4219,201.3047 Q1101.0938,200.9297 1100.4844,200.7109 Q1099.875,200.4922 1099.25,200.4922 Q1098.4844,200.4922 1097.8438,200.8203 Q1097.2188,201.1484 1096.7188,201.8984 Q1096.2344,202.6484 1096.2344,203.6797 L1096.2344,204.7734 Q1096.2344,206.0078 1097.125,206.8359 Q1098.0156,207.6484 1099.6094,207.6484 Q1100.5469,207.6484 1101.2031,207.3984 Q1101.5938,207.2422 1102.0156,206.8047 Q1102.2813,206.5391 1102.4219,206.4609 Q1102.5781,206.3828 1102.7813,206.3828 Q1103.1094,206.3828 1103.3594,206.6484 Q1103.625,206.8984 1103.625,207.2422 Q1103.625,207.5859 1103.2813,207.9922 Q1102.7813,208.5703 1101.9844,208.8984 Q1100.9063,209.3516 1099.6094,209.3516 Q1098.0938,209.3516 1096.8906,208.7266 Q1095.9063,208.2266 1095.2188,207.1641 Q1094.5313,206.0859 1094.5313,204.8047 L1094.5313,203.6484 Q1094.5313,202.3203 1095.1406,201.1797 Q1095.7656,200.0234 1096.8594,199.4141 Q1097.9531,198.7891 1099.1875,198.7891 Q1099.9219,198.7891 1100.5625,198.9609 Q1101.2188,199.1172 1101.7656,199.4766 Z " fill="#000000"/><text fill="#000000" font-family="Segoe UI" font-size="12" font-style="italic" lengthAdjust="spacing" textLength="41.7422" x="1141.9629" y="189.9492">&#171;Entity&#187;</text><text fill="#0F172A" font-family="Segoe UI" font-size="14" lengthAdjust="spacing" textLength="27.7471" x="1148.9604" y="208.0684">User</text><text fill="#0F172A" font-family="Segoe UI" font-size="14" lengthAdjust="spacing" textLength="99.668" x="1113" y="226.6895">(seller role view)</text></g><!--class Product--><g id="elem_Product"><rect codeLine="28" fill="#FFFFFF" height="44.582" id="Product" rx="2.5" ry="2.5" style="stroke:#334155;stroke-width:0.5;" width="80.2891" x="1090" y="320"/><ellipse cx="1105" cy="342.291" fill="#ADD1B2" rx="11" ry="11" style="stroke:#181818;stroke-width:1;"/><path d="M1107.7656,338.166 Q1107.9219,337.9473 1108.1094,337.8379 Q1108.2969,337.7285 1108.5156,337.7285 Q1108.8906,337.7285 1109.125,337.9941 Q1109.3594,338.2441 1109.3594,338.8535 L1109.3594,340.3066 Q1109.3594,340.916 1109.125,341.1816 Q1108.8906,341.4473 1108.5156,341.4473 Q1108.1719,341.4473 1107.9688,341.2441 Q1107.7656,341.0566 1107.6563,340.541 Q1107.6094,340.1816 1107.4219,339.9941 Q1107.0938,339.6191 1106.4844,339.4004 Q1105.875,339.1816 1105.25,339.1816 Q1104.4844,339.1816 1103.8438,339.5098 Q1103.2188,339.8379 1102.7188,340.5879 Q1102.2344,341.3379 1102.2344,342.3691 L1102.2344,343.4629 Q1102.2344,344.6973 1103.125,345.5254 Q1104.0156,346.3379 1105.6094,346.3379 Q1106.5469,346.3379 1107.2031,346.0879 Q1107.5938,345.9316 1108.0156,345.4941 Q1108.2813,345.2285 1108.4219,345.1504 Q1108.5781,345.0723 1108.7813,345.0723 Q1109.1094,345.0723 1109.3594,345.3379 Q1109.625,345.5879 1109.625,345.9316 Q1109.625,346.2754 1109.2813,346.6816 Q1108.7813,347.2598 1107.9844,347.5879 Q1106.9063,348.041 1105.6094,348.041 Q1104.0938,348.041 1102.8906,347.416 Q1101.9063,346.916 1101.2188,345.8535 Q1100.5313,344.7754 1100.5313,343.4941 L1100.5313,342.3379 Q1100.5313,341.0098 1101.1406,339.8691 Q1101.7656,338.7129 1102.8594,338.1035 Q1103.9531,337.4785 1105.1875,337.4785 Q1105.9219,337.4785 1106.5625,337.6504 Q1107.2188,337.8066 1107.7656,338.166 Z " fill="#000000"/><text fill="#000000" font-family="Segoe UI" font-size="12" font-style="italic" lengthAdjust="spacing" textLength="41.7422" x="1122.2734" y="337.9492">&#171;Entity&#187;</text><text fill="#0F172A" font-family="Segoe UI" font-size="14" lengthAdjust="spacing" textLength="48.2891" x="1119" y="356.0684">Product</text></g><!--class Order--><g id="elem_Order"><rect codeLine="29" fill="#FFFFFF" height="44.582" id="Order" rx="2.5" ry="2.5" style="stroke:#334155;stroke-width:0.5;" width="69.7422" x="914" y="320"/><ellipse cx="929" cy="342.291" fill="#ADD1B2" rx="11" ry="11" style="stroke:#181818;stroke-width:1;"/><path d="M931.7656,338.166 Q931.9219,337.9473 932.1094,337.8379 Q932.2969,337.7285 932.5156,337.7285 Q932.8906,337.7285 933.125,337.9941 Q933.3594,338.2441 933.3594,338.8535 L933.3594,340.3066 Q933.3594,340.916 933.125,341.1816 Q932.8906,341.4473 932.5156,341.4473 Q932.1719,341.4473 931.9688,341.2441 Q931.7656,341.0566 931.6563,340.541 Q931.6094,340.1816 931.4219,339.9941 Q931.0938,339.6191 930.4844,339.4004 Q929.875,339.1816 929.25,339.1816 Q928.4844,339.1816 927.8438,339.5098 Q927.2188,339.8379 926.7188,340.5879 Q926.2344,341.3379 926.2344,342.3691 L926.2344,343.4629 Q926.2344,344.6973 927.125,345.5254 Q928.0156,346.3379 929.6094,346.3379 Q930.5469,346.3379 931.2031,346.0879 Q931.5938,345.9316 932.0156,345.4941 Q932.2813,345.2285 932.4219,345.1504 Q932.5781,345.0723 932.7813,345.0723 Q933.1094,345.0723 933.3594,345.3379 Q933.625,345.5879 933.625,345.9316 Q933.625,346.2754 933.2813,346.6816 Q932.7813,347.2598 931.9844,347.5879 Q930.9063,348.041 929.6094,348.041 Q928.0938,348.041 926.8906,347.416 Q925.9063,346.916 925.2188,345.8535 Q924.5313,344.7754 924.5313,343.4941 L924.5313,342.3379 Q924.5313,341.0098 925.1406,339.8691 Q925.7656,338.7129 926.8594,338.1035 Q927.9531,337.4785 929.1875,337.4785 Q929.9219,337.4785 930.5625,337.6504 Q931.2188,337.8066 931.7656,338.166 Z " fill="#000000"/><text fill="#000000" font-family="Segoe UI" font-size="12" font-style="italic" lengthAdjust="spacing" textLength="41.7422" x="941" y="337.9492">&#171;Entity&#187;</text><text fill="#0F172A" font-family="Segoe UI" font-size="14" lengthAdjust="spacing" textLength="35.8545" x="943.9438" y="356.0684">Order</text></g><!--class OrderItem--><g id="elem_OrderItem"><rect codeLine="30" fill="#FFFFFF" height="44.582" id="OrderItem" rx="2.5" ry="2.5" style="stroke:#334155;stroke-width:0.5;" width="103.4102" x="927.5" y="431"/><ellipse cx="942.5" cy="453.291" fill="#ADD1B2" rx="11" ry="11" style="stroke:#181818;stroke-width:1;"/><path d="M945.2656,449.166 Q945.4219,448.9473 945.6094,448.8379 Q945.7969,448.7285 946.0156,448.7285 Q946.3906,448.7285 946.625,448.9941 Q946.8594,449.2441 946.8594,449.8535 L946.8594,451.3066 Q946.8594,451.916 946.625,452.1816 Q946.3906,452.4473 946.0156,452.4473 Q945.6719,452.4473 945.4688,452.2441 Q945.2656,452.0566 945.1563,451.541 Q945.1094,451.1816 944.9219,450.9941 Q944.5938,450.6191 943.9844,450.4004 Q943.375,450.1816 942.75,450.1816 Q941.9844,450.1816 941.3438,450.5098 Q940.7188,450.8379 940.2188,451.5879 Q939.7344,452.3379 939.7344,453.3691 L939.7344,454.4629 Q939.7344,455.6973 940.625,456.5254 Q941.5156,457.3379 943.1094,457.3379 Q944.0469,457.3379 944.7031,457.0879 Q945.0938,456.9316 945.5156,456.4941 Q945.7813,456.2285 945.9219,456.1504 Q946.0781,456.0723 946.2813,456.0723 Q946.6094,456.0723 946.8594,456.3379 Q947.125,456.5879 947.125,456.9316 Q947.125,457.2754 946.7813,457.6816 Q946.2813,458.2598 945.4844,458.5879 Q944.4063,459.041 943.1094,459.041 Q941.5938,459.041 940.3906,458.416 Q939.4063,457.916 938.7188,456.8535 Q938.0313,455.7754 938.0313,454.4941 L938.0313,453.3379 Q938.0313,452.0098 938.6406,450.8691 Q939.2656,449.7129 940.3594,449.1035 Q941.4531,448.4785 942.6875,448.4785 Q943.4219,448.4785 944.0625,448.6504 Q944.7188,448.8066 945.2656,449.166 Z " fill="#000000"/><text fill="#000000" font-family="Segoe UI" font-size="12" font-style="italic" lengthAdjust="spacing" textLength="75.4102" x="954.5" y="448.9492">&#171;ValueObject&#187;</text><text fill="#0F172A" font-family="Segoe UI" font-size="14" lengthAdjust="spacing" textLength="63.7041" x="960.353" y="467.0684">OrderItem</text></g><!--class ProductReview--><g id="elem_ProductReview"><rect codeLine="31" fill="#FFFFFF" height="44.582" id="ProductReview" rx="2.5" ry="2.5" style="stroke:#334155;stroke-width:0.5;" width="123.5195" x="1058" y="431"/><ellipse cx="1073" cy="453.291" fill="#ADD1B2" rx="11" ry="11" style="stroke:#181818;stroke-width:1;"/><path d="M1075.7656,449.166 Q1075.9219,448.9473 1076.1094,448.8379 Q1076.2969,448.7285 1076.5156,448.7285 Q1076.8906,448.7285 1077.125,448.9941 Q1077.3594,449.2441 1077.3594,449.8535 L1077.3594,451.3066 Q1077.3594,451.916 1077.125,452.1816 Q1076.8906,452.4473 1076.5156,452.4473 Q1076.1719,452.4473 1075.9688,452.2441 Q1075.7656,452.0566 1075.6563,451.541 Q1075.6094,451.1816 1075.4219,450.9941 Q1075.0938,450.6191 1074.4844,450.4004 Q1073.875,450.1816 1073.25,450.1816 Q1072.4844,450.1816 1071.8438,450.5098 Q1071.2188,450.8379 1070.7188,451.5879 Q1070.2344,452.3379 1070.2344,453.3691 L1070.2344,454.4629 Q1070.2344,455.6973 1071.125,456.5254 Q1072.0156,457.3379 1073.6094,457.3379 Q1074.5469,457.3379 1075.2031,457.0879 Q1075.5938,456.9316 1076.0156,456.4941 Q1076.2813,456.2285 1076.4219,456.1504 Q1076.5781,456.0723 1076.7813,456.0723 Q1077.1094,456.0723 1077.3594,456.3379 Q1077.625,456.5879 1077.625,456.9316 Q1077.625,457.2754 1077.2813,457.6816 Q1076.7813,458.2598 1075.9844,458.5879 Q1074.9063,459.041 1073.6094,459.041 Q1072.0938,459.041 1070.8906,458.416 Q1069.9063,457.916 1069.2188,456.8535 Q1068.5313,455.7754 1068.5313,454.4941 L1068.5313,453.3379 Q1068.5313,452.0098 1069.1406,450.8691 Q1069.7656,449.7129 1070.8594,449.1035 Q1071.9531,448.4785 1073.1875,448.4785 Q1073.9219,448.4785 1074.5625,448.6504 Q1075.2188,448.8066 1075.7656,449.166 Z " fill="#000000"/><text fill="#000000" font-family="Segoe UI" font-size="12" font-style="italic" lengthAdjust="spacing" textLength="41.7422" x="1111.8887" y="448.9492">&#171;Entity&#187;</text><text fill="#0F172A" font-family="Segoe UI" font-size="14" lengthAdjust="spacing" textLength="91.5195" x="1087" y="467.0684">ProductReview</text></g><!--class GymListingSubscription--><g id="elem_GymListingSubscription"><rect codeLine="35" fill="#FFFFFF" height="44.582" id="GymListingSubscription" rx="2.5" ry="2.5" style="stroke:#334155;stroke-width:0.5;" width="177.4072" x="706.5" y="320"/><ellipse cx="721.5" cy="342.291" fill="#ADD1B2" rx="11" ry="11" style="stroke:#181818;stroke-width:1;"/><path d="M724.2656,338.166 Q724.4219,337.9473 724.6094,337.8379 Q724.7969,337.7285 725.0156,337.7285 Q725.3906,337.7285 725.625,337.9941 Q725.8594,338.2441 725.8594,338.8535 L725.8594,340.3066 Q725.8594,340.916 725.625,341.1816 Q725.3906,341.4473 725.0156,341.4473 Q724.6719,341.4473 724.4688,341.2441 Q724.2656,341.0566 724.1563,340.541 Q724.1094,340.1816 723.9219,339.9941 Q723.5938,339.6191 722.9844,339.4004 Q722.375,339.1816 721.75,339.1816 Q720.9844,339.1816 720.3438,339.5098 Q719.7188,339.8379 719.2188,340.5879 Q718.7344,341.3379 718.7344,342.3691 L718.7344,343.4629 Q718.7344,344.6973 719.625,345.5254 Q720.5156,346.3379 722.1094,346.3379 Q723.0469,346.3379 723.7031,346.0879 Q724.0938,345.9316 724.5156,345.4941 Q724.7813,345.2285 724.9219,345.1504 Q725.0781,345.0723 725.2813,345.0723 Q725.6094,345.0723 725.8594,345.3379 Q726.125,345.5879 726.125,345.9316 Q726.125,346.2754 725.7813,346.6816 Q725.2813,347.2598 724.4844,347.5879 Q723.4063,348.041 722.1094,348.041 Q720.5938,348.041 719.3906,347.416 Q718.4063,346.916 717.7188,345.8535 Q717.0313,344.7754 717.0313,343.4941 L717.0313,342.3379 Q717.0313,341.0098 717.6406,339.8691 Q718.2656,338.7129 719.3594,338.1035 Q720.4531,337.4785 721.6875,337.4785 Q722.4219,337.4785 723.0625,337.6504 Q723.7188,337.8066 724.2656,338.166 Z " fill="#000000"/><text fill="#000000" font-family="Segoe UI" font-size="12" font-style="italic" lengthAdjust="spacing" textLength="41.7422" x="787.3325" y="337.9492">&#171;Entity&#187;</text><text fill="#0F172A" font-family="Segoe UI" font-size="14" lengthAdjust="spacing" textLength="145.4072" x="735.5" y="356.0684">GymListingSubscription</text></g><!--class Revenue--><g id="elem_Revenue"><rect codeLine="36" fill="#FFFFFF" height="44.582" id="Revenue" rx="2.5" ry="2.5" style="stroke:#334155;stroke-width:0.5;" width="84.8896" x="644.5" y="431"/><ellipse cx="659.5" cy="453.291" fill="#ADD1B2" rx="11" ry="11" style="stroke:#181818;stroke-width:1;"/><path d="M662.2656,449.166 Q662.4219,448.9473 662.6094,448.8379 Q662.7969,448.7285 663.0156,448.7285 Q663.3906,448.7285 663.625,448.9941 Q663.8594,449.2441 663.8594,449.8535 L663.8594,451.3066 Q663.8594,451.916 663.625,452.1816 Q663.3906,452.4473 663.0156,452.4473 Q662.6719,452.4473 662.4688,452.2441 Q662.2656,452.0566 662.1563,451.541 Q662.1094,451.1816 661.9219,450.9941 Q661.5938,450.6191 660.9844,450.4004 Q660.375,450.1816 659.75,450.1816 Q658.9844,450.1816 658.3438,450.5098 Q657.7188,450.8379 657.2188,451.5879 Q656.7344,452.3379 656.7344,453.3691 L656.7344,454.4629 Q656.7344,455.6973 657.625,456.5254 Q658.5156,457.3379 660.1094,457.3379 Q661.0469,457.3379 661.7031,457.0879 Q662.0938,456.9316 662.5156,456.4941 Q662.7813,456.2285 662.9219,456.1504 Q663.0781,456.0723 663.2813,456.0723 Q663.6094,456.0723 663.8594,456.3379 Q664.125,456.5879 664.125,456.9316 Q664.125,457.2754 663.7813,457.6816 Q663.2813,458.2598 662.4844,458.5879 Q661.4063,459.041 660.1094,459.041 Q658.5938,459.041 657.3906,458.416 Q656.4063,457.916 655.7188,456.8535 Q655.0313,455.7754 655.0313,454.4941 L655.0313,453.3379 Q655.0313,452.0098 655.6406,450.8691 Q656.2656,449.7129 657.3594,449.1035 Q658.4531,448.4785 659.6875,448.4785 Q660.4219,448.4785 661.0625,448.6504 Q661.7188,448.8066 662.2656,449.166 Z " fill="#000000"/><text fill="#000000" font-family="Segoe UI" font-size="12" font-style="italic" lengthAdjust="spacing" textLength="41.7422" x="679.0737" y="448.9492">&#171;Entity&#187;</text><text fill="#0F172A" font-family="Segoe UI" font-size="14" lengthAdjust="spacing" textLength="52.8896" x="673.5" y="467.0684">Revenue</text></g><!--class RevenueUser--><g id="elem_RevenueUser"><rect codeLine="37" fill="#FFFFFF" height="63.2031" id="RevenueUser" rx="2.5" ry="2.5" style="stroke:#334155;stroke-width:0.5;" width="163.4688" x="525.5" y="311"/><ellipse cx="540.5" cy="342.6016" fill="#ADD1B2" rx="11" ry="11" style="stroke:#181818;stroke-width:1;"/><path d="M543.2656,338.4766 Q543.4219,338.2578 543.6094,338.1484 Q543.7969,338.0391 544.0156,338.0391 Q544.3906,338.0391 544.625,338.3047 Q544.8594,338.5547 544.8594,339.1641 L544.8594,340.6172 Q544.8594,341.2266 544.625,341.4922 Q544.3906,341.7578 544.0156,341.7578 Q543.6719,341.7578 543.4688,341.5547 Q543.2656,341.3672 543.1563,340.8516 Q543.1094,340.4922 542.9219,340.3047 Q542.5938,339.9297 541.9844,339.7109 Q541.375,339.4922 540.75,339.4922 Q539.9844,339.4922 539.3438,339.8203 Q538.7188,340.1484 538.2188,340.8984 Q537.7344,341.6484 537.7344,342.6797 L537.7344,343.7734 Q537.7344,345.0078 538.625,345.8359 Q539.5156,346.6484 541.1094,346.6484 Q542.0469,346.6484 542.7031,346.3984 Q543.0938,346.2422 543.5156,345.8047 Q543.7813,345.5391 543.9219,345.4609 Q544.0781,345.3828 544.2813,345.3828 Q544.6094,345.3828 544.8594,345.6484 Q545.125,345.8984 545.125,346.2422 Q545.125,346.5859 544.7813,346.9922 Q544.2813,347.5703 543.4844,347.8984 Q542.4063,348.3516 541.1094,348.3516 Q539.5938,348.3516 538.3906,347.7266 Q537.4063,347.2266 536.7188,346.1641 Q536.0313,345.0859 536.0313,343.8047 L536.0313,342.6484 Q536.0313,341.3203 536.6406,340.1797 Q537.2656,339.0234 538.3594,338.4141 Q539.4531,337.7891 540.6875,337.7891 Q541.4219,337.7891 542.0625,337.9609 Q542.7188,338.1172 543.2656,338.4766 Z " fill="#000000"/><text fill="#000000" font-family="Segoe UI" font-size="12" font-style="italic" lengthAdjust="spacing" textLength="41.7422" x="599.3633" y="328.9492">&#171;Entity&#187;</text><text fill="#0F172A" font-family="Segoe UI" font-size="14" lengthAdjust="spacing" textLength="27.7471" x="606.3608" y="347.0684">User</text><text fill="#0F172A" font-family="Segoe UI" font-size="14" lengthAdjust="spacing" textLength="131.4688" x="554.5" y="365.6895">(revenue owner view)</text></g><path d="M432,96.2455 C432,121.9639 432,158.0083 432,180.8026 " fill="none" style="stroke:#181818;stroke-width:1;"/><text fill="#000000" font-family="Segoe UI" font-size="13" lengthAdjust="spacing" textLength="29.8848" x="434" y="130.0283">owns</text><text fill="#000000" font-family="Segoe UI" font-size="13" lengthAdjust="spacing" textLength="18.0654" x="413" y="176.8309">0..*</text><text fill="#000000" font-family="Segoe UI" font-size="13" lengthAdjust="spacing" textLength="7.0078" x="424" y="111.2738">1</text><path d="M99.5473,235.0185 C104.0999,248.9746 111.651,264.4842 124,274 C141.4788,287.4687 152.7342,273.2701 173,282 C193.9606,291.0292 214.349,306.9081 229.0214,319.9922 " fill="none" style="stroke:#181818;stroke-width:1;"/><text fill="#000000" font-family="Segoe UI" font-size="13" lengthAdjust="spacing" textLength="38.105" x="126" y="269.0283">enrolls</text><text fill="#000000" font-family="Segoe UI" font-size="13" lengthAdjust="spacing" textLength="18.0654" x="210.0214" y="316.0205">0..*</text><text fill="#000000" font-family="Segoe UI" font-size="13" lengthAdjust="spacing" textLength="7.0078" x="91.5473" y="250.0468">1</text><path d="M237.2329,235.2468 C235.0632,241.0235 233.1681,247.1033 232,253 C227.4806,275.8144 234.5371,301.8289 241.2954,319.7181 " fill="none" style="stroke:#181818;stroke-width:1;"/><text fill="#000000" font-family="Segoe UI" font-size="13" lengthAdjust="spacing" textLength="47.4106" x="234" y="269.0283">mentors</text><text fill="#000000" font-family="Segoe UI" font-size="13" lengthAdjust="spacing" textLength="18.0654" x="242.2954" y="315.7464">0..*</text><text fill="#000000" font-family="Segoe UI" font-size="13" lengthAdjust="spacing" textLength="19.6523" x="227.7329" y="250.2751">0..1</text><path d="M429.1582,226.2377 C425.8832,242.0583 418.8844,262.627 404,274 C379.82,292.4758 364.4377,271.1686 336,282 C313.2748,290.6556 290.8798,306.7287 274.7865,319.9891 " fill="none" style="stroke:#181818;stroke-width:1;"/><text fill="#000000" font-family="Segoe UI" font-size="13" lengthAdjust="spacing" textLength="19.4873" x="422" y="269.0283">has</text><text fill="#000000" font-family="Segoe UI" font-size="13" lengthAdjust="spacing" textLength="18.0654" x="275.7865" y="316.0174">0..*</text><text fill="#000000" font-family="Segoe UI" font-size="13" lengthAdjust="spacing" textLength="7.0078" x="421.1582" y="241.266">1</text><path d="M270.1069,235.2014 C279.3771,248.6889 291.724,263.7544 306,274 C314.7928,280.3105 319.2994,277.2006 329,282 C350.4893,292.6319 372.9893,307.5069 390.117,319.7239 " fill="none" style="stroke:#181818;stroke-width:1;"/><text fill="#000000" font-family="Segoe UI" font-size="13" lengthAdjust="spacing" textLength="37.3623" x="308" y="269.0283">trainer</text><text fill="#000000" font-family="Segoe UI" font-size="13" lengthAdjust="spacing" textLength="18.0654" x="371.117" y="315.7522">0..*</text><text fill="#000000" font-family="Segoe UI" font-size="13" lengthAdjust="spacing" textLength="7.0078" x="262.1069" y="250.2298">1</text><path d="M443.0519,226.3086 C448.6189,239.9515 453.5144,257.9271 450,274 C446.4742,290.1253 438.7242,307.0003 431.8556,319.844 " fill="none" style="stroke:#181818;stroke-width:1;"/><text fill="#000000" font-family="Segoe UI" font-size="13" lengthAdjust="spacing" textLength="25.1431" x="454" y="269.0283">gym</text><text fill="#000000" font-family="Segoe UI" font-size="13" lengthAdjust="spacing" textLength="18.0654" x="412.8556" y="315.8723">0..*</text><text fill="#000000" font-family="Segoe UI" font-size="13" lengthAdjust="spacing" textLength="7.0078" x="435.0519" y="241.3369">1</text><path d="M211.4397,235.1584 C204.1828,240.9441 196.7785,247.0498 190,253 C165.2966,274.6845 138.6435,301.3416 120.8067,319.6992 " fill="none" style="stroke:#181818;stroke-width:1;"/><text fill="#000000" font-family="Segoe UI" font-size="13" lengthAdjust="spacing" textLength="33.5981" x="192" y="269.0283">coach</text><text fill="#000000" font-family="Segoe UI" font-size="13" lengthAdjust="spacing" textLength="18.0654" x="101.8067" y="315.7275">0..*</text><text fill="#000000" font-family="Segoe UI" font-size="13" lengthAdjust="spacing" textLength="7.0078" x="203.4397" y="250.1867">1</text><path d="M52.6717,235.1592 C47.9397,240.5629 43.8056,246.5468 41,253 C37.2787,261.5594 37.7195,265.2622 41,274 C47.6741,291.777 61.3866,307.9403 73.9132,319.9906 " fill="none" style="stroke:#181818;stroke-width:1;"/><text fill="#000000" font-family="Segoe UI" font-size="13" lengthAdjust="spacing" textLength="39.6411" x="43" y="269.0283">trainee</text><text fill="#000000" font-family="Segoe UI" font-size="13" lengthAdjust="spacing" textLength="18.0654" x="54.9132" y="316.019">0..*</text><text fill="#000000" font-family="Segoe UI" font-size="13" lengthAdjust="spacing" textLength="7.0078" x="44.6717" y="250.1875">1</text><path d="M399.7651,226.204 C388.6846,234.1738 376.4472,243.5647 366,253 C356.6591,261.4361 358.3842,268.6315 347,274 C311.99,290.5098 209.1589,268.1869 173,282 C152.2279,289.9352 132.9236,306.2317 119.39,319.7661 " fill="none" style="stroke:#181818;stroke-width:1;"/><text fill="#000000" font-family="Segoe UI" font-size="13" lengthAdjust="spacing" textLength="30.4116" x="368" y="269.0283">hosts</text><text fill="#000000" font-family="Segoe UI" font-size="13" lengthAdjust="spacing" textLength="18.0654" x="120.39" y="315.7945">0..*</text><text fill="#000000" font-family="Segoe UI" font-size="13" lengthAdjust="spacing" textLength="7.0078" x="391.7651" y="241.2323">1</text><path d="M1145.5116,235.2455 C1141.7571,260.9639 1136.4951,297.0083 1133.1675,319.8026 " fill="none" style="stroke:#181818;stroke-width:1;"/><text fill="#000000" font-family="Segoe UI" font-size="13" lengthAdjust="spacing" textLength="24.1274" x="1144" y="269.0283">sells</text><text fill="#000000" font-family="Segoe UI" font-size="13" lengthAdjust="spacing" textLength="18.0654" x="1114.1675" y="315.8309">0..*</text><text fill="#000000" font-family="Segoe UI" font-size="13" lengthAdjust="spacing" textLength="7.0078" x="1137.5116" y="250.2738">1</text><path d="M978.4721,235.2455 C971.3385,260.9639 961.3408,297.0083 955.0183,319.8026 " fill="none" style="stroke:#181818;stroke-width:1;"/><text fill="#000000" font-family="Segoe UI" font-size="13" lengthAdjust="spacing" textLength="35.7246" x="975" y="269.0283">places</text><text fill="#000000" font-family="Segoe UI" font-size="13" lengthAdjust="spacing" textLength="18.0654" x="936.0183" y="315.8309">0..*</text><text fill="#000000" font-family="Segoe UI" font-size="13" lengthAdjust="spacing" textLength="7.0078" x="970.4721" y="250.2738">1</text><polygon fill="#181818" points="952.2752,365.0461,949.3423,371.6339,954.2953,376.8749,957.2282,370.2872,952.2752,365.0461" style="stroke:#181818;stroke-width:1;"/><path d="M954.2953,376.8749 C956.6617,390.7312 958.255,397.2041 963,413 C964.7455,418.8106 967.0144,424.9514 969.2923,430.6149 " fill="none" style="stroke:#181818;stroke-width:1;"/><text fill="#000000" font-family="Segoe UI" font-size="13" lengthAdjust="spacing" textLength="48.02" x="965" y="408.0283">contains</text><text fill="#000000" font-family="Segoe UI" font-size="13" lengthAdjust="spacing" textLength="18.0654" x="950.2923" y="426.6432">1..*</text><text fill="#000000" font-family="Segoe UI" font-size="13" lengthAdjust="spacing" textLength="7.0078" x="944.2752" y="380.0745">1</text><path d="M1095.6949,365.1115 C1083.056,373.3007 1068.7238,382.8573 1056,392 C1038.7422,404.4006 1019.9795,419.1156 1005.2961,430.9282 " fill="none" style="stroke:#181818;stroke-width:1;"/><text fill="#000000" font-family="Segoe UI" font-size="13" lengthAdjust="spacing" textLength="59.4141" x="1058" y="408.0283">appears in</text><text fill="#000000" font-family="Segoe UI" font-size="13" lengthAdjust="spacing" textLength="18.0654" x="1006.2961" y="426.9565">0..*</text><text fill="#000000" font-family="Segoe UI" font-size="13" lengthAdjust="spacing" textLength="7.0078" x="1087.6949" y="380.1398">1</text><path d="M1128.0243,365.0349 C1126.2826,384.02 1123.7565,411.5539 1122.0058,430.6368 " fill="none" style="stroke:#181818;stroke-width:1;"/><text fill="#000000" font-family="Segoe UI" font-size="13" lengthAdjust="spacing" textLength="45.811" x="1127" y="408.0283">receives</text><text fill="#000000" font-family="Segoe UI" font-size="13" lengthAdjust="spacing" textLength="18.0654" x="1103.0058" y="426.6651">0..*</text><text fill="#000000" font-family="Segoe UI" font-size="13" lengthAdjust="spacing" textLength="7.0078" x="1120.0243" y="380.0632">1</text><path d="M1007.4532,235.1037 C1010.4712,240.845 1013.1747,246.9496 1015,253 C1025.2893,287.1067 1004.3127,383.9971 1025,413 C1033.0905,424.3425 1045.0701,432.4402 1057.8178,438.2173 " fill="none" style="stroke:#181818;stroke-width:1;"/><text fill="#000000" font-family="Segoe UI" font-size="13" lengthAdjust="spacing" textLength="33.7822" x="1021" y="348.0283">writes</text><text fill="#000000" font-family="Segoe UI" font-size="13" lengthAdjust="spacing" textLength="18.0654" x="1038.8178" y="434.2456">0..*</text><text fill="#000000" font-family="Segoe UI" font-size="13" lengthAdjust="spacing" textLength="7.0078" x="1008.4532" y="250.132">1</text><path d="M467.3238,211.7359 C519.1089,223.0259 618.0456,247.2054 697,282 C720.496,292.3545 745.1968,307.382 763.922,319.7437 " fill="none" style="stroke:#181818;stroke-width:1;"/><text fill="#000000" font-family="Segoe UI" font-size="13" lengthAdjust="spacing" textLength="19.4873" x="679" y="269.0283">has</text><text fill="#000000" font-family="Segoe UI" font-size="13" lengthAdjust="spacing" textLength="18.0654" x="744.922" y="315.772">0..*</text><text fill="#000000" font-family="Segoe UI" font-size="13" lengthAdjust="spacing" textLength="7.0078" x="468.3238" y="207.7642">1</text><path d="M481.4292,96.0064 C537.3379,131.3116 630.1977,192.3975 704,253 C729.7177,274.118 756.7569,301.1139 774.611,319.7063 " fill="none" style="stroke:#181818;stroke-width:1;"/><text fill="#000000" font-family="Segoe UI" font-size="13" lengthAdjust="spacing" textLength="57.3257" x="683" y="209.0283">purchases</text><text fill="#000000" font-family="Segoe UI" font-size="13" lengthAdjust="spacing" textLength="18.0654" x="755.611" y="315.7346">0..*</text><text fill="#000000" font-family="Segoe UI" font-size="13" lengthAdjust="spacing" textLength="7.0078" x="473.4292" y="111.0348">1</text><path d="M913.7886,364.8212 C907.932,368.0595 901.857,371.2373 896,374 C840.0862,400.3738 772.7151,424.3561 729.8686,438.6889 " fill="none" style="stroke:#181818;stroke-width:1;"/><text fill="#000000" font-family="Segoe UI" font-size="13" lengthAdjust="spacing" textLength="56.4624" x="854" y="408.0283">generates</text><text fill="#000000" font-family="Segoe UI" font-size="13" lengthAdjust="spacing" textLength="18.0654" x="730.8686" y="434.7173">0..*</text><text fill="#000000" font-family="Segoe UI" font-size="13" lengthAdjust="spacing" textLength="7.0078" x="905.7886" y="360.8496">1</text><path d="M629.4974,374.1526 C642.7148,392.1614 659.1083,414.4975 671.0053,430.7073 " fill="none" style="stroke:#181818;stroke-width:1;"/><text fill="#000000" font-family="Segoe UI" font-size="13" lengthAdjust="spacing" textLength="30.8052" x="659" y="408.0283">earns</text><text fill="#000000" font-family="Segoe UI" font-size="13" lengthAdjust="spacing" textLength="18.0654" x="652.0053" y="426.7356">0..*</text><text fill="#000000" font-family="Segoe UI" font-size="13" lengthAdjust="spacing" textLength="19.6523" x="609.4974" y="389.181">0..1</text><rect fill="#DDDDDD" height="71.1836" id="_legend" rx="7.5" ry="7.5" style="stroke:#000000;stroke-width:1;" width="442.5576" x="760.4424" y="498"/><text fill="#000000" font-family="Segoe UI" font-size="18" font-weight="bold" lengthAdjust="spacing" textLength="155.707" x="765.4424" y="522.4238">Cardinality View =</text><text fill="#000000" font-family="Segoe UI" font-size="14" lengthAdjust="spacing" textLength="408.0713" x="765.4424" y="542.0488">Multiple "User role views" are shown only to reduce crossing lines.</text><text fill="#000000" font-family="Segoe UI" font-size="14" lengthAdjust="spacing" textLength="432.5576" x="765.4424" y="560.6699">They all refer to the same underlying User entity in the domain model.</text><!--SRC=[ZLLDRzD04BtxLmpc0fKQDPI2PBMLIaLH9KeG_JXncTXJUybwrzfTDpAe_vrPso5E_55oo-nxCxFZztPU5GRJ745YfKi7DYU72WEd2t0QbjevdKCY3CLEQ1NObL056ip1PfZejL0fFAAqr3cHGf6h2W9jNAOx1mazOYdTbLRk6-O4jvHgWllh3aJfX2mLS7BI2HfKAn_yq0t64gs5Fm709unNgT6bIYwrr0PUNzK_Vw9DGgQD7X-_dtDQ05-_ZHrTpJ- -kmYUWqma19GNheASyYKP6mG5vyMK8Bnf8faeu47GEgohDlN3UqlcftgZrueC62q9dXZoDWIqiF113u3Jqy_A2LUTd_UOpY3FY_QvTqtu_zXcc3rQ-qkLZuGxLnq0j6alh1Mfoacv2T1terD3_By3UUuE5SsAN24nfj6fngLb-VMlTzd6NvgE9IdxxDiwEiRblfCo7hpPmgjfzE3QaP_g0ygI5ijVR9X-rX_asnWTYMRZYD_edTQR2N-Shy8wDjnjkRIn4KKD6-Y6Yv0gQMemfeKqijsEfgNkpuQRt6evd8TmU0ZXqMns4DPIYdmU6tGbsmDrX1K1AVuaSiDeqp9qakJrfjcNlk9q-WptKk-W-oAEeBNHGEuXT5hbB-V_f_y8OernDZ6UFgDz5CRxwM0pRHs_LXrLxp8sWex0sy46E-RPXJO2Zw1sfGsQlnvou37pBQRMkh-OSjoE3JOr1jArK2mAGcD1g17mhaCYu8r3ueac-ztdh8rmp1YMo91x6grCQ7kOL9GcPkBEYBQqZVzOACI9qRVKDLPFwLi2ZuYd6KXYPW96f9bZxvx19Pf4A9Hin_fXW3CEt_0k5GK_RRMhjw-SPIiRuWNDhWIjPEKtkI6U545iD2kPbxPVqdR6MUuogW2bPCGZPs6eovZizpDlL3Aoyl2w0jNl0N_26fBedByzvBonvIpWVfkk_m80]--></g></svg>