<svg xmlns="http://www.w3.org/2000/svg" xmlns:xlink="http://www.w3.org/1999/xlink" contentStyleType="text/css" height="727px" preserveAspectRatio="none" style="width:783px;height:727px;background:#FFFFFF;" version="1.1" viewBox="0 0 783 727" width="783px" zoomAndPan="magnify"><defs/><g><!--entity ASC--><g id="elem_ASC"><rect fill="#EDE9FE" height="57.2422" rx="8" ry="8" style="stroke:#334155;stroke-width:0.5;" width="191.5684" x="330.6915" y="12"/><text fill="#0F172A" font-family="Segoe UI" font-size="14" lengthAdjust="spacing" textLength="171.5684" x="340.6915" y="37.1074">Administration and Support</text><text fill="#0F172A" font-family="Segoe UI" font-size="14" lengthAdjust="spacing" textLength="48.0293" x="340.6915" y="55.7285">Context</text></g><!--entity IAC--><g id="elem_IAC"><rect fill="#E2E8F0" height="57.2422" rx="8" ry="8" style="stroke:#334155;stroke-width:0.5;" width="138.9932" x="324.1915" y="143"/><text fill="#0F172A" font-family="Segoe UI" font-size="14" lengthAdjust="spacing" textLength="118.9932" x="334.1915" y="168.1074">Identity and Access</text><text fill="#0F172A" font-family="Segoe UI" font-size="14" lengthAdjust="spacing" textLength="48.0293" x="334.1915" y="186.7285">Context</text></g><!--entity GMC--><g id="elem_GMC"><rect fill="#DBEAFE" height="57.2422" rx="8" ry="8" style="stroke:#334155;stroke-width:0.5;" width="220.5732" x="299.1915" y="274"/><text fill="#0F172A" font-family="Segoe UI" font-size="14" lengthAdjust="spacing" textLength="200.5732" x="309.1915" y="299.1074">Gym Discovery and Membership</text><text fill="#0F172A" font-family="Segoe UI" font-size="14" lengthAdjust="spacing" textLength="48.0293" x="309.1915" y="317.7285">Context</text></g><!--entity TEC--><g id="elem_TEC"><rect fill="#DCFCE7" height="57.2422" rx="8" ry="8" style="stroke:#334155;stroke-width:0.5;" width="144.6465" x="132.1915" y="405"/><text fill="#0F172A" font-family="Segoe UI" font-size="14" lengthAdjust="spacing" textLength="124.6465" x="142.1915" y="430.1074">Trainer Engagement</text><text fill="#0F172A" font-family="Segoe UI" font-size="14" lengthAdjust="spacing" textLength="48.0293" x="142.1915" y="448.7285">Context</text></g><!--entity MPC--><g id="elem_MPC"><rect fill="#FEF3C7" height="57.2422" rx="8" ry="8" style="stroke:#334155;stroke-width:0.5;" width="191.8281" x="579.6915" y="405"/><text fill="#0F172A" font-family="Segoe UI" font-size="14" lengthAdjust="spacing" textLength="171.8281" x="589.6915" y="430.1074">Marketplace and Fulfillment</text><text fill="#0F172A" font-family="Segoe UI" font-size="14" lengthAdjust="spacing" textLength="48.0293" x="589.6915" y="448.7285">Context</text></g><!--entity MRC--><g id="elem_MRC"><rect fill="#FCE7F3" height="57.2422" rx="8" ry="8" style="stroke:#334155;stroke-width:0.5;" width="185.7168" x="289.6915" y="536"/><text fill="#0F172A" font-family="Segoe UI" font-size="14" lengthAdjust="spacing" textLength="165.7168" x="299.6915" y="561.1074">Monetization and Revenue</text><text fill="#0F172A" font-family="Segoe UI" font-size="14" lengthAdjust="spacing" textLength="48.0293" x="299.6915" y="579.7285">Context</text></g><polygon fill="#181818" points="344.2882,273.7421,339.8497,264.95,340.4163,270.5784,334.7879,271.1451,344.2882,273.7421" style="stroke:#181818;stroke-width:1;"/><path d="M342.8737,200.1741 C337.1858,205.3475 332.1902,211.2801 328.6915,218 C320.892,232.9801 320.1609,241.4239 328.6915,256 C332.6834,262.8211 333.4685,264.9016 339.642,269.9457 " fill="none" style="stroke:#181818;stroke-width:1;"/><text fill="#000000" font-family="Segoe UI" font-size="13" lengthAdjust="spacing" textLength="79.5742" x="343.6724" y="234.0283">Shared Kernel</text><text fill="#000000" font-family="Segoe UI" font-size="13" lengthAdjust="spacing" textLength="105.5361" x="330.6915" y="251.3193">UserId, role, status</text><polygon fill="#181818" points="190.1093,404.9925,189.9467,395.145,188.0035,400.4576,182.6909,398.5144,190.1093,404.9925" style="stroke:#181818;stroke-width:1;"/><path d="M324.1025,185.416 C274.7559,198.5994 211.9582,224.4653 180.6915,274 C155.2888,314.2444 172.0039,366.0028 187.5823,399.5506 " fill="none" style="stroke:#181818;stroke-width:1;"/><text fill="#000000" font-family="Segoe UI" font-size="13" lengthAdjust="spacing" textLength="79.5742" x="195.6724" y="299.5283">Shared Kernel</text><text fill="#000000" font-family="Segoe UI" font-size="13" lengthAdjust="spacing" textLength="105.5361" x="182.6915" y="316.8193">UserId, role, status</text><polygon fill="#181818" points="644.4822,404.8977,640.5289,395.8771,640.7883,401.528,635.1374,401.7874,644.4822,404.8977" style="stroke:#181818;stroke-width:1;"/><path d="M433.8552,200.0142 C442.1378,205.8555 450.7526,212.0554 458.6915,218 C490.5831,241.8805 501.0841,245.2739 528.6915,274 C550.4964,296.6885 549.9732,307.3151 570.6915,331 C593.8946,357.5256 618.4235,381.1261 640.0495,400.854 " fill="none" style="stroke:#181818;stroke-width:1;"/><text fill="#000000" font-family="Segoe UI" font-size="13" lengthAdjust="spacing" textLength="79.5742" x="585.6724" y="299.5283">Shared Kernel</text><text fill="#000000" font-family="Segoe UI" font-size="13" lengthAdjust="spacing" textLength="105.5361" x="572.6915" y="316.8193">UserId, role, status</text><polygon fill="#181818" points="289.6095,545.363,281.7905,539.3744,284.7473,544.197,279.9248,547.1538,289.6095,545.363" style="stroke:#181818;stroke-width:1;"/><path d="M324.0772,178.8558 C283.5703,184.7738 232.5977,196.1566 191.6915,218 C117.0936,257.8343 87.0675,271.2977 53.6915,349 C6.7323,458.325 170.8217,516.8739 283.7749,543.9637 " fill="none" style="stroke:#181818;stroke-width:1;"/><text fill="#000000" font-family="Segoe UI" font-size="13" lengthAdjust="spacing" textLength="79.5742" x="71.7606" y="365.0283">Shared Kernel</text><text fill="#000000" font-family="Segoe UI" font-size="13" lengthAdjust="spacing" textLength="111.7124" x="55.6915" y="382.3193">owner/user identity</text><polygon fill="#181818" points="195.1689,404.782,196.9767,395.1005,194.0113,399.9179,189.194,396.9526,195.1689,404.782" style="stroke:#181818;stroke-width:1;"/><path d="M298.9372,327.8843 C294.1238,328.9383 289.3588,329.9805 284.6915,331 C247.8146,339.0551 225.3855,319.6167 201.6915,349 C189.3079,364.3571 189.5395,381.1262 193.7798,398.945 " fill="none" style="stroke:#181818;stroke-width:1;"/><text fill="#000000" font-family="Segoe UI" font-size="13" lengthAdjust="spacing" textLength="107.688" x="251.1243" y="365.0283">Customer/Supplier</text><text fill="#000000" font-family="Segoe UI" font-size="13" lengthAdjust="spacing" textLength="202.5537" x="203.6915" y="382.3193">approved gym + membership state</text><polygon fill="#181818" points="392.6753,535.8482,399.3868,528.6402,394.3027,531.1205,391.8225,526.0363,392.6753,535.8482" style="stroke:#181818;stroke-width:1;"/><path d="M424.7707,331.2345 C427.2229,336.9545 429.385,343.0517 430.6915,349 C434.3145,365.4957 432.9272,370.2597 430.6915,387 C423.5032,440.8237 406.4542,495.8202 394.6282,530.1749 " fill="none" style="stroke:#181818;stroke-width:1;"/><text fill="#000000" font-family="Segoe UI" font-size="13" lengthAdjust="spacing" textLength="107.688" x="430.6915" y="430.5283">Customer/Supplier</text><text fill="#000000" font-family="Segoe UI" font-size="13" lengthAdjust="spacing" textLength="94.3833" x="437.3438" y="447.8193">gym listing state</text><polygon fill="#181818" points="445.344,535.9158,455.1928,535.9501,449.9201,533.901,451.9692,528.6283,445.344,535.9158" style="stroke:#181818;stroke-width:1;"/><path d="M613.195,462.0155 C563.6989,483.8073 500.372,511.6884 450.8354,533.4981 " fill="none" style="stroke:#181818;stroke-width:1;"/><text fill="#000000" font-family="Segoe UI" font-size="13" lengthAdjust="spacing" textLength="115.6353" x="599.6802" y="496.0283">Published Language</text><text fill="#000000" font-family="Segoe UI" font-size="13" lengthAdjust="spacing" textLength="181.6128" x="566.6915" y="513.3193">order settlement + payout facts</text><polygon fill="#181818" points="400.7591,142.872,406.8648,135.1441,401.9983,138.028,399.1144,133.1615,400.7591,142.872" style="stroke:#181818;stroke-width:1;"/><path d="M419.6121,69.1737 C414.0442,90.9392 407.811,115.3056 402.2461,137.0592 " fill="none" style="stroke:#181818;stroke-width:1;"/><text fill="#000000" font-family="Segoe UI" font-size="13" lengthAdjust="spacing" textLength="68.2119" x="419.5193" y="103.0283">Governance</text><text fill="#000000" font-family="Segoe UI" font-size="13" lengthAdjust="spacing" textLength="73.8677" x="416.6915" y="120.3193">access policy</text><polygon fill="#181818" points="444.4943,273.8056,453.6422,270.1564,447.9857,270.2265,447.9156,264.5701,444.4943,273.8056" style="stroke:#181818;stroke-width:1;"/><path d="M480.9149,69.0371 C486.8242,74.2088 492.0181,80.1775 495.6915,87 C503.6981,101.8704 498.0087,108.2708 495.6915,125 C487.3907,184.9278 490.2545,204.3858 458.6915,256 C454.8154,262.3385 454.0045,264.0566 448.684,269.5107 " fill="none" style="stroke:#181818;stroke-width:1;"/><text fill="#000000" font-family="Segoe UI" font-size="13" lengthAdjust="spacing" textLength="68.2119" x="510.5005" y="168.5283">Governance</text><text fill="#000000" font-family="Segoe UI" font-size="13" lengthAdjust="spacing" textLength="97.8301" x="495.6915" y="185.8193">moderation rules</text><polygon fill="#181818" points="681.2658,404.9579,686.7013,396.7447,682.094,400.0269,678.8118,395.4196,681.2658,404.9579" style="stroke:#181818;stroke-width:1;"/><path d="M490.6742,69.0558 C525.6849,86.4732 568.0421,111.6246 598.6915,143 C646.5252,191.9669 660.9787,208.1543 679.6915,274 C692.333,318.4825 687.6537,366.9248 682.2596,399.0407 " fill="none" style="stroke:#181818;stroke-width:1;"/><text fill="#000000" font-family="Segoe UI" font-size="13" lengthAdjust="spacing" textLength="68.2119" x="691.5005" y="234.0283">Governance</text><text fill="#000000" font-family="Segoe UI" font-size="13" lengthAdjust="spacing" textLength="97.8301" x="676.6915" y="251.3193">moderation rules</text><polygon fill="#181818" points="132.1398,420.65,124.1264,414.9242,127.2417,419.646,122.5199,422.7613,132.1398,420.65" style="stroke:#181818;stroke-width:1;"/><path d="M330.6184,54.5464 C236.3227,73.0209 97.3839,116.694 31.6915,218 C10.3822,250.8616 -17.3643,315.0642 41.6915,387 C53.6226,401.5333 88.4949,411.7035 126.2621,419.4452 " fill="none" style="stroke:#181818;stroke-width:1;"/><text fill="#000000" font-family="Segoe UI" font-size="13" lengthAdjust="spacing" textLength="68.2119" x="43.0447" y="234.0283">Governance</text><text fill="#000000" font-family="Segoe UI" font-size="13" lengthAdjust="spacing" textLength="86.9185" x="33.6915" y="251.3193">feature toggles</text><rect fill="#DDDDDD" height="108.4258" id="_legend" rx="7.5" ry="7.5" style="stroke:#000000;stroke-width:1;" width="404.1738" x="228.3262" y="599"/><text fill="#000000" font-family="Segoe UI" font-size="18" font-weight="bold" lengthAdjust="spacing" textLength="127.5469" x="233.3262" y="623.4238">Context Map =</text><text fill="#000000" font-family="Segoe UI" font-size="14" lengthAdjust="spacing" textLength="223.8086" x="233.3262" y="643.0488">Shared Kernel: shared core concepts</text><text fill="#000000" font-family="Segoe UI" font-size="14" lengthAdjust="spacing" textLength="381.5" x="233.3262" y="661.6699">Customer/Supplier: downstream depends on upstream model</text><text fill="#000000" font-family="Segoe UI" font-size="14" lengthAdjust="spacing" textLength="394.1738" x="233.3262" y="680.291">Published Language: translated business facts between contexts</text><text fill="#000000" font-family="Segoe UI" font-size="14" lengthAdjust="spacing" textLength="267.4629" x="233.3262" y="698.9121">Governance: administrative policy influence</text><!--SRC=[bLHDJzj04BtlhvZ2iQ02AT16eb8mDehQL2Y1K-bXOq-SLTQxg_q0qgh_lREsvTWDX-ARP-RDnzityyvONbOS9D_guC5LwBdYp6i3NiDIUwyhA8J5t0kjcDi8PRZb5RWrB_IpK2Mik7JOyqYXq6yDWhP-hNkE0bSyI9zfvR_p2c61fKPucFP2b2xGeO6BavxHShM9nilplf4wuggK2ByPm3NFDwNLGHM9bjh2OLP_qQDjWRQrZaOVJy_FoHfxQ6qdsUdbsOHiymPk5LeulM1_6DlLE9WKbL32USiZ3y1L0OjW38tug19AXY_-0BY3oIA1m_Gc_PobVVYqGEM5tzR0IPwZSqFST19nP-cdxAIFkzrMS2DShf_GDk0PLakqRYtCCC7jZ1BSNAUJOU5xoqKSA5KbBx6YBeQm-pJ2aYn9B_km6RSRz4Ro7EkgMP0h8UK-VdP7-2pDHiaGhqa3ujUEh3a-eGhu3tWUmLGw6p4McJl-iHO5KVNJYdBjZxz4MbYafdEGvXJPQLeM9zu3q3n3HmkWFbcSTSy-JrXJeSaAOrYikSK2lY8fGJwg1uTsMXo1rHAFm7dkW-iGCUNR496mDoBcho2eUxGV0k50jDfYpU1TLqbmjBmK5OKg1Tf7nOsn9AK2IjBLUwWwBTKriKlGb7mbGSH9MeEuzmqaphE3t8KbkTTKuHif8P3agDMuWE3GUraBa0gRvjgiUEvT-_BDOrEAswXrnLLEK5vl2XWjHRxjuffdwiTLT3RQpRH1ekj26xR_AxGXhH-wGde7YtG8op96CeabafPhhT71k89Mp33Z1gx8CdYaSRoHyJVNb2JNbDFGkB3FwnYY6kcuO7qb3HLnG0q6qzfYqvAG-_IEWKwISfAUee1bSBJiH5XDB2pHFoEgM3fs6KllnXi3xvsq9sn91g5MCY05CEgY6VWl]--></g></svg>